<?xml version="1.0" standalone="no"?><!DOCTYPE svg PUBLIC "-//W3C//DTD SVG 1.1//EN" "http://www.w3.org/Graphics/SVG/1.1/DTD/svg11.dtd"><svg t="1547718038737" class="icon" style="" viewBox="0 0 1024 1024" version="1.1" xmlns="http://www.w3.org/2000/svg" p-id="15452" xmlns:xlink="http://www.w3.org/1999/xlink" width="200" height="200"><defs><style type="text/css"></style></defs><path d="M907.776 12.288H117.76c-57.856 0-104.96 47.104-104.96 104.96v790.016c0 57.856 47.104 104.96 104.96 104.96h790.016c57.856 0 104.96-47.104 104.96-104.96V117.248c0-57.856-47.104-104.96-104.96-104.96z m-65.536 546.816h-282.624V844.8c0 25.6-20.992 46.592-46.592 46.592s-46.592-20.992-46.592-46.592v-285.696H183.808c-25.6 0-46.592-20.992-46.592-46.592s20.992-46.592 46.592-46.592H465.92V186.368c0-25.6 20.992-46.592 46.592-46.592s46.592 20.992 46.592 46.592v279.04h282.624c25.6 0 46.592 20.992 46.592 46.592s-20.48 47.104-46.08 47.104z" p-id="15453"></path></svg>
