<?xml version="1.0" standalone="no"?><!DOCTYPE svg PUBLIC "-//W3C//DTD SVG 1.1//EN" "http://www.w3.org/Graphics/SVG/1.1/DTD/svg11.dtd"><svg t="1554359781564" class="icon" style="" viewBox="0 0 1024 1024" version="1.1" xmlns="http://www.w3.org/2000/svg" p-id="5985" xmlns:xlink="http://www.w3.org/1999/xlink" width="200" height="200"><defs><style type="text/css"></style></defs><path d="M425.964403 696.340053L843.730835 278.57362l-65.531989-65.531989-352.234443 352.234443-163.829974-163.829974-65.531989 65.53199L425.964403 696.340053z m405.479184-696.277388a73.723488 73.723488 0 0 1 61.43624 28.670245 81.914987 81.914987 0 0 1 28.670246 65.53199V696.340053a77.819237 77.819237 0 0 1-12.287248 40.957493 73.723488 73.723488 0 0 1-28.670246 32.765995L511.975139 1024l-368.617441-253.936459a73.723488 73.723488 0 0 1-28.670245-32.765995 77.819237 77.819237 0 0 1-12.287248-40.957493V94.2649A81.914987 81.914987 0 0 1 131.07045 28.73291 73.723488 73.723488 0 0 1 192.50669 0.062665z" fill="#8990E5" p-id="5986"></path></svg>