<?xml version="1.0" standalone="no"?><!DOCTYPE svg PUBLIC "-//W3C//DTD SVG 1.1//EN" "http://www.w3.org/Graphics/SVG/1.1/DTD/svg11.dtd"><svg t="1553222492361" class="icon" style="" viewBox="0 0 1024 1024" version="1.1" xmlns="http://www.w3.org/2000/svg" p-id="24521" xmlns:xlink="http://www.w3.org/1999/xlink" width="200" height="200"><defs><style type="text/css"></style></defs><path d="M934.774158 369.766609c0 60.576216 5.129231 121.716647-1.128431 181.677356-11.284308 109.303909-70.578216 195.834033-145.311109 272.567325-70.065293 71.809231-150.286463 131.308309-234.098095 186.088494-25.953908 16.977754-53.600462 19.183323-79.605662 2.20557C367.73769 942.599107 265.717289 866.840368 185.701289 765.640644 119.380334 681.829012 83.988641 587.55375 86.194211 479.224395c1.949108-88.786985 0-177.676556 0.512923-266.720003 0-39.392493 25.133231-68.577816 63.346-69.757539 114.89477-3.590462 212.811787-50.163877 303.137542-116.587417 47.650554-35.032647 70.783385-34.827477 118.946863 0.307754 89.812832 65.500278 186.857879 112.278863 300.829387 116.023201C912.000373 143.618822 937.287481 171.829592 937.646527 210.91433c0.307754 52.933662 0 105.918616 0 159.006156z m-453.936928 35.083939c-37.3408 0-72.21957-0.359046-107.149632 0-42.110985 0.564215-55.857324 13.643754-56.421539 55.139231q-1.128431 74.322555 0 148.747694c0.564215 42.829077 14.772185 56.165077 57.857724 56.421539h107.406093v48.419939c-0.359046 22.517323 8.411939 35.237816 32.980954 35.494277 25.646154 0.256462 32.314154-14.310554 32.365447-35.904616v-48.060892c38.6744 0 74.322555 0.461631 109.970709 0 33.186123-0.564215 48.88157-13.438585 49.3432-42.675201 0.974554-58.062893 0.6668-116.177078 0-174.393848 0-23.543169-11.951108-39.597662-36.674-41.033846-28.928862-1.743938-58.011601-1.538769-87.196924-2.051693H548.850831c-2.462031-25.646154-1.179723-49.035447-33.032247-49.240616s-33.237416 22.517323-34.981354 49.138032z m0-115.818032H332.961505c-46.163077 0-62.679201 16.67-63.602462 63.397293v17.952308c-0.974554 21.132431 3.744338 37.802431 29.390493 38.776985 22.568616 0.820677 34.930062-11.027846 34.058092-37.648555-0.718092-21.3376 6.360246-28.415939 27.800432-28.262061q155.10794 1.282308 310.21588 0c21.953108 0 30.416339 5.129231 21.747938 28.056892-7.129631 18.824277 1.743938 31.083139 20.516923 36.725293s30.108585-1.3336 35.904616-18.721693a219.428494 219.428494 0 0 0 9.232616-34.314554c7.591262-46.573416-5.847323-64.21797-52.779785-65.808031-43.495877-1.487477-87.196924-1.179723-130.590217 0.307754-17.541969 0.564215-26.159077-5.129231-31.493477-21.440185-6.668-20.516923-18.567816-38.110185-44.573016-31.185724s-28.569816 26.0052-18.106185 52.164278z" p-id="24522"></path><path d="M481.144984 564.728672v42.675201c-27.800431 0-54.934062 1.282308-82.067693-0.461631-17.439385-1.128431-19.285908-8.565815-14.720893-42.21357zM549.7228 564.215749h91.710647c7.283508 39.956708 4.308554 43.701047-34.160677 43.752339H549.7228zM481.144984 466.45261v38.571816H386.049044c-7.899015-37.135631-5.129231-41.033847 30.775385-41.033847 17.849723 0 35.904616 0 53.54917 0.359046a71.809231 71.809231 0 0 1 10.771385 2.102985zM549.671508 463.836702H609.375754c36.366247 0 38.161477 2.359446 32.416739 41.905816h-92.326155z" p-id="24523"></path></svg>