<?xml version="1.0" standalone="no"?><!DOCTYPE svg PUBLIC "-//W3C//DTD SVG 1.1//EN" "http://www.w3.org/Graphics/SVG/1.1/DTD/svg11.dtd"><svg t="1556090161418" class="icon" style="" viewBox="0 0 1024 1024" version="1.1" xmlns="http://www.w3.org/2000/svg" p-id="4412" xmlns:xlink="http://www.w3.org/1999/xlink" width="128" height="128"><defs><style type="text/css"></style></defs><path d="M606.56 91.104c0-50.08-42.432-90.848-94.752-90.848-52.16 0-94.752 40.64-94.752 90.848 0 5.152 0.416 10.144 1.248 15.04-130.784 43.68-238.176 177.952-238.176 336.704v125.088s0 180.032-46.176 181.568c-27.424 0-48.544 20.448-48.544 45.504 0 25.184 21.152 45.344 47.296 45.344h757.984c26.304 0 47.296-20.32 47.296-45.344 0-25.312-21.152-45.344-47.296-45.344-47.456 0-47.456-180.32-47.456-180.32v-126.336c0-159.04-100.32-293.28-238.176-336.832 0.96-5.024 1.536-9.888 1.536-15.04z m47.36 762.496c-0.128 75.264-63.168 136.352-142.048 136.352-78.464 0-141.92-60.8-142.048-136.352h284.096z" p-id="4413"></path></svg>