<?xml version="1.0" standalone="no"?><!DOCTYPE svg PUBLIC "-//W3C//DTD SVG 1.1//EN" "http://www.w3.org/Graphics/SVG/1.1/DTD/svg11.dtd"><svg class="icon" width="200px" height="200.00px" viewBox="0 0 1024 1024" version="1.1" xmlns="http://www.w3.org/2000/svg"><path fill="#1296db" d="M933.065395 52.695758H89.557756c-20.652732 0-37.550422 16.89769-37.550422 37.550422v843.632808c0 20.652732 16.89769 37.550422 37.550422 37.550422h843.632808c20.652732 0 37.550422-16.89769 37.550421-37.550422v-843.632808c-0.125168-20.652732-17.022858-37.550422-37.67559-37.550422zM597.614961 668.397506L444.659577 821.352891c-65.963574 65.963574-173.858453 65.963574-239.947195 0l-2.878865-2.878866c-65.963574-65.963574-65.963574-173.983621 0-239.947195l106.893533-106.893533c-0.500672 31.542354 5.131891 63.084708 17.148026 92.749541l-69.217944 69.217944c-35.798069 35.798069-35.798069 94.12639 0 129.924459l2.878866 2.878866c35.798069 35.798069 94.12639 35.798069 129.924459 0l152.830217-152.830216c35.798069-35.798069 35.798069-94.12639 0-129.924459l-2.878866-2.878866c-5.632563-5.632563-11.765799-10.263782-18.274539-14.018824l55.950129-55.950129c6.008067 4.631219 11.890967 9.512773 17.273194 15.020169l2.878865 2.878866c66.339078 65.838406 66.339078 173.733284 0.375504 239.696858z m223.049505-223.049505l-106.893533 106.893534c0.500672-31.542354-5.131891-63.084708-17.148026-92.749541l69.217944-69.217944c35.798069-35.798069 35.798069-94.12639 0-129.924459l-2.878866-2.878866c-35.798069-35.798069-94.12639-35.798069-129.924459 0L480.082142 410.551277c-35.798069 35.798069-35.798069 94.12639 0 129.924459l2.878865 2.878866c5.632563 5.632563 11.765799 10.263782 18.274539 14.018824L445.285417 613.323555c-6.008067-4.631219-11.890967-9.512773-17.398362-15.020169l-2.878865-2.878866c-65.963574-65.963574-65.963574-173.858453 0-239.822026L577.838406 202.772277c65.963574-65.963574 173.858453-65.963574 239.947195 0l2.878865 2.878866c65.963574 65.838406 65.963574 173.733284 0 239.696858z"  /></svg>