<?xml version="1.0" standalone="no"?><!DOCTYPE svg PUBLIC "-//W3C//DTD SVG 1.1//EN" "http://www.w3.org/Graphics/SVG/1.1/DTD/svg11.dtd"><svg t="1551689091360" class="icon" style="" viewBox="0 0 1024 1024" version="1.1" xmlns="http://www.w3.org/2000/svg" p-id="8840" xmlns:xlink="http://www.w3.org/1999/xlink" width="200" height="200"><defs><style type="text/css"></style></defs><path d="M324.4 289.6c28.1 0 51.1-23 51.1-51.1V142c0-28.1-23-51.1-51.1-51.1s-51.1 23-51.1 51.1v96.5c0 28.1 23 51.1 51.1 51.1z" p-id="8841"></path><path d="M926.8 309.7c0-70.2-57.4-127.6-127.6-127.6h-34.5v68.6c0 35.1-28.7 63.8-63.8 63.8S637 285.7 637 250.6V182H388.2v68.6c0 35.1-28.7 63.8-63.8 63.8-35.1 0-63.8-28.7-63.8-63.8V182h-35.8c-70.2 0-127.6 57.4-127.6 127.6V805.2c0 70.2 57.4 127.6 127.6 127.6h574.4c70.2 0 127.6-57.4 127.6-127.6V358.6v-0.4-48.5zM799.2 741.5c0 35.1-28.7 63.8-63.8 63.8H288.6c-35.1 0-63.8-28.7-63.8-63.8V396h574.4v345.5z" p-id="8842"></path><path d="M700.8 289.6c28.1 0 51.1-23 51.1-51.1V142c0-28.1-23-51.1-51.1-51.1s-51.1 23-51.1 51.1v96.5c0.1 28.1 23 51.1 51.1 51.1zM475.9 625.2c-12.8 30.3-22.2 67.8-28.2 112.6h75.9c2.5-32.2 7.4-60 14.6-83.6 9.1-30.3 21.5-57.8 37.2-82.5 13-20.3 29.1-39.2 48.4-56.7v-51.4H401.5V528h135.4c-27.9 34.5-48.2 66.9-61 97.2z" p-id="8843"></path></svg>