<?xml version="1.0" standalone="no"?><!DOCTYPE svg PUBLIC "-//W3C//DTD SVG 1.1//EN" "http://www.w3.org/Graphics/SVG/1.1/DTD/svg11.dtd"><svg t="1550560014577" class="icon" style="" viewBox="0 0 1024 1024" version="1.1" xmlns="http://www.w3.org/2000/svg" p-id="22070" xmlns:xlink="http://www.w3.org/1999/xlink" width="200" height="200"><defs><style type="text/css"></style></defs><path d="M511.829333 255.886222c0-68.266667-25.6-132.209778-72.533333-179.143111C388.096 25.656889 328.362667 0 255.886222 0c-68.266667 0-132.209778 25.6-179.143111 76.8C25.6 123.676444 0 187.733333 0 255.829333c0 72.533333 25.6 132.266667 76.8 183.409778 38.343111 38.4 85.276444 64 136.476444 72.533333v140.743112c-25.6 8.533333-51.2 21.333333-72.533333 42.666666-34.133333 38.343111-55.466667 85.276444-55.466667 136.476445 0 55.409778 21.333333 98.076444 55.466667 136.476444 38.4 38.343111 85.333333 55.409778 136.533333 55.409778 55.409778 0 98.076444-17.009778 136.419556-55.409778 38.4-38.4 55.466667-81.066667 55.466667-136.533333 0-12.743111 0-29.809778-4.266667-42.666667l311.352889-187.562667c25.6 25.6 59.733333 38.343111 98.076444 38.343112 42.666667 0 76.8-12.8 106.666667-42.666667 29.809778-29.866667 42.666667-63.943111 42.666667-106.609778 0-38.343111-12.856889-76.8-42.666667-106.666667-29.866667-25.6-64-42.666667-106.666667-42.666666-38.343111 0-76.8 17.066667-106.609777 42.666666 0 4.323556-4.266667 8.533333-8.533334 12.8L511.829333 294.343111v-38.456889z m-29.866666 123.733334l247.352889 93.809777c-4.266667 8.533333-4.266667 12.8-4.266667 17.009778 0 17.066667 4.266667 29.866667 8.533333 42.666667l-311.352889 174.876444c-4.266667-4.266667-8.533333-8.533333-8.533333-12.8-34.133333-29.809778-68.266667-46.933333-115.143111-51.2V511.886222c55.466667-8.533333 98.076444-34.133333 140.743111-72.533333 17.066667-21.333333 34.133333-38.4 42.666667-59.733333z" fill="#5983e8" p-id="22071"></path></svg>