<?xml version="1.0" standalone="no"?><!DOCTYPE svg PUBLIC "-//W3C//DTD SVG 1.1//EN" "http://www.w3.org/Graphics/SVG/1.1/DTD/svg11.dtd"><svg t="1556523607731" class="icon" style="" viewBox="0 0 1024 1024" version="1.1" xmlns="http://www.w3.org/2000/svg" p-id="32212" xmlns:xlink="http://www.w3.org/1999/xlink" width="128" height="128"><defs><style type="text/css"></style></defs><path d="M549.925926 15.17037h151.703704v986.074074H549.925926a227.555556 227.555556 0 0 1-227.555556-227.555555v-530.962963a227.555556 227.555556 0 0 1 227.555556-227.555556z m-34.057482 481.65926a15.17037 15.17037 0 0 0-3.830518 11.377777 15.284148 15.284148 0 0 0 3.792593 11.377778l124.814222 136.040296a12.781037 12.781037 0 0 0 19.114666 0 15.739259 15.739259 0 0 0 0-20.859259L543.630222 508.207407l116.129185-126.558814a15.777185 15.777185 0 0 0 0-20.85926 12.705185 12.705185 0 0 0-19.038814 0L515.868444 496.82963zM398.222222 508.207407a15.17037 15.17037 0 0 0 3.792593 11.377778l124.776296 136.040296a12.781037 12.781037 0 0 0 19.114667 0 15.777185 15.777185 0 0 0 0-20.859259L429.814519 508.207407l116.167111-126.520888a15.815111 15.815111 0 0 0 0-20.85926 12.781037 12.781037 0 0 0-19.076741 0L402.014815 496.82963a15.246222 15.246222 0 0 0-3.754667 11.377777z" fill="#e6e6e6" p-id="32213"></path></svg>