<?xml version="1.0" standalone="no"?><!DOCTYPE svg PUBLIC "-//W3C//DTD SVG 1.1//EN" "http://www.w3.org/Graphics/SVG/1.1/DTD/svg11.dtd"><svg t="1544518596333" class="icon" style="" viewBox="0 0 1024 1024" version="1.1" xmlns="http://www.w3.org/2000/svg" p-id="3585" xmlns:xlink="http://www.w3.org/1999/xlink" width="200" height="200"><defs><style type="text/css"></style></defs><path d="M640 288 640 64 192 64C121.344 64 64 121.344 64 192l0 704c0 70.656 57.344 128 128 128l576 0c70.656 0 128-57.344 128-128L896 320l-224 0C654.336 320 640 305.664 640 288zM704 544C704 561.664 689.664 576 672 576L512 576l0 160C512 753.664 497.664 768 480 768S448 753.664 448 736L448 576 288 576C270.336 576 256 561.664 256 544S270.336 512 288 512L448 512 448 352C448 334.336 462.336 320 480 320S512 334.336 512 352L512 512l160 0C689.664 512 704 526.336 704 544zM704 64l0 192 192 0L704 64z" p-id="3586"></path></svg>