<?xml version="1.0" standalone="no"?><!DOCTYPE svg PUBLIC "-//W3C//DTD SVG 1.1//EN" "http://www.w3.org/Graphics/SVG/1.1/DTD/svg11.dtd"><svg t="1562052146735" class="icon" viewBox="0 0 1024 1024" version="1.1" xmlns="http://www.w3.org/2000/svg" p-id="3531" xmlns:xlink="http://www.w3.org/1999/xlink" width="128" height="128"><defs><style type="text/css"></style></defs><path d="M36.768744 24.433116v845.688261h158.018679v129.730083h791.553191V154.1632H828.504112V24.433116H36.768744z m468.566921 553.367219L376.034233 448.438177l86.199367-86.205321 129.307386 129.302623 129.302623-129.302623 86.199368 86.205321-129.302624 129.301432L807.042977 707.042233l-86.199368 86.20532L591.540986 663.94493 462.2336 793.247553l-86.199367-86.20532 129.301432-129.241898zM103.038214 90.516837h659.321451v63.646363H194.907684v649.81373H103.038214V90.516837z m0 0" p-id="3532" fill="#3fa9f5"></path><path d="M251.726586 210.553451v734.493768h679.683572v-734.493768H251.726586z m253.609079 367.246884L376.034233 448.438177l86.199367-86.205321 129.307386 129.302623 129.302623-129.302623 86.199368 86.205321-129.302624 129.301432L807.042977 707.042233l-86.199368 86.20532L591.540986 663.94493 462.2336 793.247553l-86.199367-86.20532 129.301432-129.241898z m0 0" p-id="3533" fill="#3fa9f5"></path></svg>