<?xml version="1.0" standalone="no"?><!DOCTYPE svg PUBLIC "-//W3C//DTD SVG 1.1//EN" "http://www.w3.org/Graphics/SVG/1.1/DTD/svg11.dtd"><svg t="1560996274789" class="icon" style="" viewBox="0 0 1024 1024" version="1.1" xmlns="http://www.w3.org/2000/svg" p-id="4668" xmlns:xlink="http://www.w3.org/1999/xlink" width="128" height="128"><defs><style type="text/css"></style></defs><path d="M756.417 461.041c-103.36 0-187.275 83.827-187.339 187.142-0.064 103.346 84.075 187.335 187.596 187.303 103.07-0.032 187.017-83.922 187.178-187.013 0.128-103.38-83.914-187.399-187.435-187.432z m100.986 288.275c-8.568 8.476-22.432 8.476-31 0-11.873-11.784-39.758-39.619-69.954-69.797-30.164 30.18-58.05 58.014-69.924 69.797-8.568 8.476-22.432 8.476-31 0-8.535-8.475-8.535-22.218 0-30.725 11.939-11.814 39.856-39.682 70.117-69.925-30.326-30.338-58.339-58.432-70.18-70.374-8.472-8.574-8.472-22.442 0-31.013 8.47-8.541 22.205-8.541 30.709 0 11.841 12.006 39.919 40.13 70.277 70.534 30.388-30.404 58.466-58.528 70.308-70.534 8.471-8.541 22.205-8.541 30.677 0 8.471 8.572 8.471 22.44 0 31.013-11.808 11.942-39.823 40.036-70.148 70.374 30.26 30.243 58.179 58.112 70.117 69.925 8.536 8.507 8.536 22.25 0.001 30.725zM529.255 549.042c0-11.172-9.08-20.258-20.248-20.258H320.449c-11.168 0-20.248 9.086-20.248 20.258 0 11.205 9.08 20.258 20.248 20.258h188.558c11.168 0 20.248-9.053 20.248-20.258z m58.595-89.38c0-11.173-9.08-20.259-20.248-20.259H320.449c-11.168 0-20.248 9.086-20.248 20.258 0 11.173 9.08 20.26 20.248 20.26h247.154c11.167-0.002 20.247-9.087 20.247-20.26zM320.449 618.196c-11.168 0-20.248 9.054-20.248 20.26 0 11.171 9.08 20.258 20.248 20.258h109.393c11.198 0 21.531-9.087 21.531-20.258 0-11.206-9.049-20.26-20.248-20.26H320.45z m256.876 164.765h-297.18c-19.769 0-35.812-16.086-35.812-35.862V406.623c0-19.809 16.044-35.861 35.811-35.861h340.342c19.767 0 35.812 16.051 35.812 35.861v52.429a204.329 204.329 0 0 1 53.75-13.647v-56.729c0-39.585-32.09-71.658-71.656-71.658h-70.18v-24.946c0-39.619-32.09-71.691-71.656-71.691H120.402c-39.566 0-71.655 32.072-71.655 71.691v376.305c0 39.62 32.089 71.724 71.655 71.724h70.18v24.913c0 39.619 32.09 71.692 71.656 71.692h386.68c-27.663-12.521-52.084-30.98-71.593-53.744zM138.31 686.326c-19.767 0-35.812-16.052-35.812-35.83v-340.51c0-19.777 16.046-35.86 35.812-35.86h340.34c19.769 0 35.812 16.052 35.812 35.86v7.033H262.238c-39.567 0-71.655 32.073-71.655 71.658v297.649h-52.274z" fill="#1296DB" p-id="4669"></path></svg>