<?xml version="1.0" standalone="no"?><!DOCTYPE svg PUBLIC "-//W3C//DTD SVG 1.1//EN" "http://www.w3.org/Graphics/SVG/1.1/DTD/svg11.dtd"><svg t="1547734133491" class="icon" style="" viewBox="0 0 1024 1024" version="1.1" xmlns="http://www.w3.org/2000/svg" p-id="7256" xmlns:xlink="http://www.w3.org/1999/xlink" width="200" height="200"><defs><style type="text/css"></style></defs><path d="M751 157.4c45.2 6.4 92.2-1.8 129.1 4.5 59.7 10.2 90 61 83.5 135.8h-72.3c-2 132.7-1.1 264.1-1.1 397.3 0 67.2 5.6 137.8-1.1 198.1-6.3 56.9-48.1 91.6-99 100.1-50.3 8.4-117 2.2-172.5 2.2-116.4 0-234.3 2.3-348.3 0-55.5-1.1-96.5-18.7-121.3-52.3-24.8-33.6-22.3-84.4-22.3-144.7V297.7h-69c-11.2-68.8 18.6-118.3 69-134.6 37.1-12 86.5-2.3 139.1-5.6-4.3-74.1-0.2-130.3 63.4-138 28.5-3.4 66.5 0 101.3 0H632c38.6 0 78.1-3.7 97.9 13.4 27.3 23.5 20.2 78 21.1 124.5zM333.7 92.8v66.8H682V89.5H334.8c-1.3 0.2-1.2 1.7-1.1 3.3z m-67.9 212.6v424c0 36.2-8.3 113.4 13.4 129.1 8.6 6.2 30.9 7.2 41.2 0 22.4-15.6 14.5-90.6 14.5-128V302.1H267c-1.4 0.1-1.3 1.7-1.2 3.3z m207 0V716c0 32.4-7.5 109.1 5.6 131.3 8.6 14.7 37.8 21.3 52.3 10 19.7-15.4 11.1-96.6 11.1-130.2V302h-67.9c-1.3 0.2-1.2 1.8-1.1 3.4z m209.2 0v429.5c0 44-8.6 111.5 20 123.5 12.5 5.3 34.6 1.2 40.1-3.3 18.7-15.4 10-97.8 10-130.2V302.1h-69c-1.3 0.1-1.2 1.7-1.1 3.3z" fill="" p-id="7257"></path></svg>