<?xml version="1.0" standalone="no"?><!DOCTYPE svg PUBLIC "-//W3C//DTD SVG 1.1//EN" "http://www.w3.org/Graphics/SVG/1.1/DTD/svg11.dtd"><svg t="1548811780851" class="icon" style="" viewBox="0 0 1024 1024" version="1.1" xmlns="http://www.w3.org/2000/svg" p-id="27839" xmlns:xlink="http://www.w3.org/1999/xlink" width="200" height="200"><defs><style type="text/css"></style></defs><path d="M885.571925 141.243733H785.015125v172.987734h-546.133333V141.312H139.895125c-20.411733 0-37.4784 17.681067-37.4784 38.843733V985.088c0 21.162667 17.066667 38.843733 37.546667 38.843733h743.970133c20.48 0 37.546667-17.681067 37.546667-38.843733V180.087467a36.113067 36.113067 0 0 0-35.84-38.843734zM513.586859 935.7312c-141.653333 0-256-118.306133-256-264.874667 0-146.500267 114.346667-264.8064 256-264.8064s256 118.306133 256 264.874667c0 146.500267-114.346667 264.8064-256 264.8064z m204.8-845.687467h-64.853334V58.231467C653.533525 26.487467 627.933525 0 597.213525 0H428.253525c-30.72 0-56.32 26.487467-56.32 58.231467v31.812266h-63.0784v157.149867h409.531734V90.043733z m-204.8 100.625067c-34.133333 0-61.44-28.2624-61.44-65.3312 0-35.293867 27.306667-65.3312 61.44-65.3312s61.44 28.2624 61.44 65.3312c0 40.618667-27.306667 65.3312-61.44 65.3312zM648.481792 520.874667l-334.506667 192.512c-1.6384 0-1.6384 1.706667-1.6384 3.4816 0 1.774933 1.706667 3.549867 1.706667 3.549866l112.64 40.618667h3.413333l155.2384-157.149867-122.88 164.181334c0 1.774933-1.706667 1.774933 0 3.549866 0 1.774933 1.706667 1.774933 1.706667 1.774934l124.586667 42.325333h3.413333l1.706667-1.774933 61.44-289.518934c0-1.774933 0-3.549867-1.706667-3.549866h-5.12z m-182.613333 271.906133h-3.413334c-1.706667 0-1.706667 1.774933-1.706666 3.549867v72.362666c0 1.774933 1.706667 3.549867 1.706666 3.549867H464.161792c1.706667 0 1.706667 0 3.413333-1.774933l34.133334-61.781334v-3.549866c0-1.774933-1.706667-1.774933-1.706667-1.774934l-34.133333-10.581333z" p-id="27840"></path></svg>