<?xml version="1.0" standalone="no"?><!DOCTYPE svg PUBLIC "-//W3C//DTD SVG 1.1//EN" "http://www.w3.org/Graphics/SVG/1.1/DTD/svg11.dtd"><svg t="1550655685338" class="icon" style="" viewBox="0 0 1024 1024" version="1.1" xmlns="http://www.w3.org/2000/svg" p-id="7387" xmlns:xlink="http://www.w3.org/1999/xlink" width="200" height="200"><defs><style type="text/css"></style></defs><path d="M470.48 480.83c-116.56 0-208.71-92.15-208.71-208.71S353.92 63.41 470.48 63.41s208.71 92.15 208.71 208.71c0 111.58-92.15 208.71-208.71 208.71zM416.76 728.39c0-76.76 29.88-146.32 78.28-197 4.24-4.44 1.16-12-4.88-12H385.25c-136.16 0-216.32 106.85-216.32 106.85C93.6 713.44 98.43 835 98.43 835c0 82.19 122.16 87.17 122.16 87.17 37.36 4.38 132.63 4.9 196.76 5 5.93 0 39.6 0.74 60.85-0.73 5.61-0.39 8.39-10.22 4.71-14.61a284.78 284.78 0 0 1-66.16-183.39z m0 0" p-id="7388"></path><path d="M705.91 515.27c-122.81 0-222.37 99.56-222.37 222.37S583.1 960 705.91 960s222.37-99.56 222.37-222.36-99.56-222.37-222.37-222.37z m82.87 102.09a146.17 146.17 0 0 1 49.5 182.08L644.11 605.27a145.77 145.77 0 0 1 144.67 12.09zM623 857.91c-61.54-42.5-80.51-123.78-46.41-188.29l197.3 197.3A145.76 145.76 0 0 1 623 857.91z" p-id="7389"></path></svg>