<?xml version="1.0" standalone="no"?><!DOCTYPE svg PUBLIC "-//W3C//DTD SVG 1.1//EN" "http://www.w3.org/Graphics/SVG/1.1/DTD/svg11.dtd"><svg t="1550655866003" class="icon" style="" viewBox="0 0 1000 1000" version="1.1" xmlns="http://www.w3.org/2000/svg" p-id="23811" xmlns:xlink="http://www.w3.org/1999/xlink" width="200" height="200"><defs><style type="text/css"></style></defs><path d="M873.5166 519.4828l-13.0107-29.6779c-36.8116 22.3059-71.1966 46.0108-102.9084 69.9726-50.8956-104.4292-146.8225-181.2541-266.0875-189.1478 77.0509-13.5658 135.5996-80.8252 135.5996-161.7533 0-90.7265-73.5551-164.2616-164.2764-164.2616s-164.2594 73.5351-164.2594 164.2616c0 83.2625 61.9635 152.0539 142.3004 162.7876-162.1367 18.5414-289.0089 184.41-289.0089 386.2861 166.3231 17.0394 257.7618-224.5088 485.5507-95.809-40.4332 38.6048-71.7173 73.0595-92.4711 97.4769l-122.8008-95.0925-54.2235 43.2117 212.1958 213.2954c20.331-51.4761 65.2025-130.3077 125.3532-212.2361 2.8752 2.2964 5.7633 4.6269 8.6785 7.0332 13.7432 11.3503 79.7892 69.2221 81.2213-23.2952-2.7043-26.2542-8.0009-51.9538-15.629-76.674C809.1646 582.0843 840.6465 549.3665 873.5166 519.4828z" p-id="23812"></path></svg>