<?xml version="1.0" standalone="no"?><!DOCTYPE svg PUBLIC "-//W3C//DTD SVG 1.1//EN" "http://www.w3.org/Graphics/SVG/1.1/DTD/svg11.dtd"><svg t="1556523626866" class="icon" style="" viewBox="0 0 1024 1024" version="1.1" xmlns="http://www.w3.org/2000/svg" p-id="32572" xmlns:xlink="http://www.w3.org/1999/xlink" width="128" height="128"><defs><style type="text/css"></style></defs><path d="M474.074074 1020.017778H322.37037v-986.074074h151.703704a227.555556 227.555556 0 0 1 227.555556 227.555555v530.962963a227.555556 227.555556 0 0 1-227.555556 227.555556z m34.057482-481.659259a15.17037 15.17037 0 0 0 3.830518-11.377778 15.284148 15.284148 0 0 0-3.792593-11.415704l-124.814222-136.00237a12.781037 12.781037 0 0 0-19.114666 0 15.739259 15.739259 0 0 0 0 20.821333l116.129185 126.596741-116.129185 126.558815a15.777185 15.777185 0 0 0 0 20.859259 12.705185 12.705185 0 0 0 19.038814 0l124.852149-136.040296z m117.608296-11.377778a15.17037 15.17037 0 0 0-3.792593-11.377778l-124.776296-136.040296a12.781037 12.781037 0 0 0-19.114667 0 15.777185 15.777185 0 0 0 0 20.859259l116.129185 126.596741-116.167111 126.520889a15.815111 15.815111 0 0 0 0 20.859259c5.30963 5.688889 13.842963 5.688889 19.076741 0L621.985185 538.358519a15.246222 15.246222 0 0 0 3.754667-11.377778z" fill="#1296db" p-id="32573"></path></svg>