<?xml version="1.0" standalone="no"?><!DOCTYPE svg PUBLIC "-//W3C//DTD SVG 1.1//EN" "http://www.w3.org/Graphics/SVG/1.1/DTD/svg11.dtd"><svg t="1550553714135" class="icon" style="" viewBox="0 0 1024 1024" version="1.1" xmlns="http://www.w3.org/2000/svg" p-id="4589" xmlns:xlink="http://www.w3.org/1999/xlink" width="200" height="200"><defs><style type="text/css"></style></defs><path d="M913.408 261.12c27.648 0 50.176-22.528 50.176-50.176s-22.528-50.176-50.176-50.176H113.152c-27.648 0-50.176 22.528-50.176 50.176s22.528 50.176 50.176 50.176h800.256zM113.152 762.88c-27.648 0-50.176 22.528-50.176 50.176s22.528 50.176 50.176 50.176h800.768c27.648 0 50.176-22.528 50.176-50.176s-22.528-50.176-50.176-50.176H113.152z m0-301.056c-27.648 0-50.176 22.528-50.176 50.176s22.528 50.176 50.176 50.176h800.768c27.648 0 50.176-22.528 50.176-50.176s-22.528-50.176-50.176-50.176H113.152z" p-id="4590"></path></svg>