<?xml version="1.0" standalone="no"?><!DOCTYPE svg PUBLIC "-//W3C//DTD SVG 1.1//EN" "http://www.w3.org/Graphics/SVG/1.1/DTD/svg11.dtd"><svg t="1536131772533" class="icon" style="" viewBox="0 0 1030 1024" version="1.1" xmlns="http://www.w3.org/2000/svg" p-id="7156" xmlns:xlink="http://www.w3.org/1999/xlink" width="201.171875" height="200"><defs><style type="text/css"></style></defs><path d="M556.298 99.929c-11.332 0-23.179 0.515-34.511 1.545 211.187 17.513 377.561 194.704 377.561 410.527s-166.374 393.014-377.561 410.527c11.332 1.030 22.665 1.545 34.511 1.545 227.67 0 412.073-184.402 412.073-412.071s-184.402-412.071-412.071-412.071z" fill="#D7EFF9" p-id="7157"></path><path d="M7.726 423.92l113.319 128.258c11.847 13.392 32.451 13.392 44.298 0l113.321-128.258c16.998-19.058 3.091-49.449-22.149-49.449h-226.64c-25.755 0.515-39.147 30.39-22.149 49.449z" fill="#12B7F5" p-id="7158"></path><path d="M556.813 38.633c-242.093 0-442.463 182.857-469.763 418.254l89.626-45.843c44.813-168.435 198.31-292.571 380.137-292.571 216.853 0 393.529 176.676 393.529 393.529s-176.161 393.529-393.529 393.529c-130.318 0-245.183-64.901-316.781-163.284l-70.567 41.207c85.505 122.076 227.155 201.915 387.348 201.915 260.636 0 473.367-212.217 473.367-473.367s-212.217-473.367-473.367-473.367z" fill="#12B7F5" p-id="7159"></path><path d="M548.055 570.205h-6.181c-19.573 0-35.541-15.968-35.541-35.541v-221.489c0-19.573 15.968-35.541 35.541-35.541h6.181c19.573 0 35.541 15.968 35.541 35.541v221.489c0 19.573-15.968 35.541-35.541 35.541z" fill="#1BE0D6" p-id="7160"></path><path d="M517.151 511.485l4.121-4.121c13.907-13.907 36.571-13.907 50.479 0l152.982 152.982c13.907 13.907 13.907 36.571 0 50.479l-4.121 4.121c-13.907 13.907-36.571 13.907-50.479 0l-152.982-152.982c-13.907-13.907-13.907-36.571 0-50.479z" fill="#1BE0D6" p-id="7161"></path><path d="M161.738 758.729c0 22.758 18.449 41.207 41.207 41.207s41.207-18.449 41.207-41.207c0-22.758-18.449-41.207-41.207-41.207-22.758 0-41.207 18.449-41.207 41.207z" fill="#12B7F5" p-id="7162"></path></svg>