<?xml version="1.0" standalone="no"?><!DOCTYPE svg PUBLIC "-//W3C//DTD SVG 1.1//EN" "http://www.w3.org/Graphics/SVG/1.1/DTD/svg11.dtd"><svg t="1556515091753" class="icon" style="" viewBox="0 0 1024 1024" version="1.1" xmlns="http://www.w3.org/2000/svg" p-id="15354" xmlns:xlink="http://www.w3.org/1999/xlink" width="128" height="128"><defs><style type="text/css"></style></defs><path d="M342.576384 110.2887l444.54743 0L787.123814 23.117269c0-12.559526-10.186561-22.744643-22.744643-22.744643L171.111989 0.372626c-60.518544 0-109.754313 49.235769-109.754313 109.76009 0 0.795803 0.153094 1.572829 0.251306 2.36141-0.085213 55.893935-0.777027 569.463876-0.085213 637.000214-0.038996 1.308525-0.19209 2.591052-0.19209 3.92413 0 58.190353 45.554279 105.809963 102.859283 109.401907 1.15543 0.179092 2.283419 0.33363 3.464846 0.33363l19.689975 0c-0.024553-13.083803-0.05055-28.427915-0.063549-45.464733L171.09899 817.689275c-34.547362 0-62.749969-27.428468-64.129264-61.653755 0.037551-0.589269 0.140096-1.179983 0.127097-1.79525-0.025997-1.026889-0.051994-2.567944-0.076547-4.618832 1.981563-33.68079 29.922753-60.492547 64.078714-60.492547l16.144248 0c0.011554-36.060976 0.024553-73.957642 0.05055-111.826866-0.404401-1.718702-0.678815-3.489399-0.678815-5.323645L186.614973 110.119718c0-12.559526 10.166341-22.746087 22.725867-22.746087 12.552305 0 22.737422 10.186561 22.737422 22.746087l0 46.566725C260.243317 128.072214 299.377738 110.261258 342.576384 110.2887z" p-id="15355" fill="#1296db"></path><path d="M941.554279 890.939216c-12.546528 0-22.731645 10.186561-22.731645 22.757642l0 62.835182L348.248102 976.532039c-34.558917 0-62.75719-27.427024-64.136485-61.629202 0.024553-0.615267 0.127097-1.20598 0.127097-1.819803-0.024553-1.002336-0.05055-2.566499-0.076547-4.618832 1.981563-33.663458 29.924197-60.472327 64.085935-60.472327l587.712451 0c1.79525 0 3.526951-0.257083 5.196547-0.667261 0.127097 0 0.268638 0.051994 0.397179 0.051994 12.546528 0 22.733089-10.186561 22.733089-22.733089L964.287368 181.960034c0-12.558082-10.186561-22.737422-22.733089-22.737422L348.274099 159.222612c-60.525766 0-109.761535 49.235769-109.761535 109.73987 0 0.814578 0.160316 1.577162 0.249862 2.380186-0.076547 55.893935-0.775583 569.46532-0.076547 636.994437-0.038996 1.308525-0.199312 2.617049-0.199312 3.925574 0 58.190353 45.561501 105.809963 102.859283 109.401907 1.140987 0.179092 2.27042 0.359628 3.463402 0.359628l596.745027 0c12.572525 0 22.744643-10.186561 22.744643-22.733089l0-85.592824C964.298922 901.125777 954.12536 890.939216 941.554279 890.939216zM612.668299 289.958093c2.651712-13.294669 8.644062-23.969399 17.975605-31.957755 5.306313-3.9949 8.644062-3.308863 9.98725 1.99745-1.343188 6.679831 5.304869 14.668186 19.973055 23.969399 9.299769 5.336643 15.293563 13.98215 17.977049 25.966849 1.309969 9.331543 0 15.323893-3.9949 17.977049-1.343188 0-3.339193 0-5.99235 0-25.309698-2.651712-41.290742-5.99235-47.937354-9.98725C613.978268 313.926048 611.325111 304.626279 612.668299 289.958093zM458.867543 567.597856c9.299769-13.294669 19.974499-34.610911 31.959199-63.916953 10.641512-23.969399 19.287018-49.248767 25.966849-75.901653 2.653157-10.641512 4.650606-26.621111 5.990906-47.937354 1.311413-6.648056 1.99745-11.9847 1.99745-15.979599s3.308863-5.99235 9.98725-5.99235c11.9847 2.683487 19.974499 3.339193 23.969399 1.99745 3.996344 0 9.299769-0.655707 15.978155-1.99745 17.291013-1.311413 27.964299-1.99745 31.959199-1.99745 13.294669 0 42.600711-5.99235 87.886353-17.977049 21.284468-5.304869 35.954099-8.645506 43.943898-9.98725 6.648056-2.651712 10.641512-2.651712 11.9847 0 10.641512 13.326443 15.978155 26.652886 15.978155 39.948999-1.343188 6.678386-5.336643 10.673286-11.9847 11.9847-42.632485-5.306313-69.253597-3.9949-79.895109 3.9949-3.996344 1.341743-11.330437 15.979599-21.971949 43.942454 11.9847-1.309969 30.616011-4.650606 55.927154-9.98725 3.996344-1.311413 6.648056-1.99745 7.9898-1.99745 14.637856-1.311413 23.969399 0.686037 27.962855 5.99235 2.653157 7.9898 2.653157 14.668186 0 19.974499-3.9949 0-9.98725 2.683487-17.975605 7.9898-10.674731 5.336643-28.650336 11.328993-53.931148 17.977049-11.9847 2.683487-20.660536 4.680937-25.966849 5.99235-17.319898 5.336643-27.307148 17.321343-29.960305 35.954099 2.653157-1.311413 6.648056-1.99745 11.9847-1.99745 10.641512 1.341743 17.289568 1.341743 19.973055 0 0-2.651712 0.655707-7.302319 1.998894-13.98215 0-6.648056 0.654262-11.297219 1.99745-13.98215 5.304869-2.653157 13.294669-2.653157 23.969399 0 7.988355 2.683487 11.297219 5.336643 9.985805 7.9898l0 3.9949c-1.341743 3.9949-1.99745 6.678386-1.99745 7.9898 2.653157 0 9.299769-0.655707 19.974499-1.99745 10.641512-1.311413 17.975605-1.99745 21.971949-1.99745 5.304869 0 7.988355 2.683487 7.988355 7.9898 0 1.341743 0.655707 3.9949 1.998894 7.9898 0 3.9949 0.654262 6.679831 1.99745 7.9898-7.9898 6.679831-19.318793 11.330437-33.956649 13.983594-1.343188 0-8.677281 3.339193-21.971949 9.985805 0 5.336643 0 11.330437 0 17.977049 47.937354 1.341743 83.203972-1.99745 105.863402-9.98725 6.648056-1.309969 10.641512 0 11.9847 3.9949 5.304869 13.327887 10.641512 24.655436 15.978155 33.956649 2.653157 11.9847-0.687481 18.663086-9.98725 19.974499-15.978155-5.306313-35.954099-9.299769-59.922054-11.9847-23.969399-1.311413-45.939904-0.655707-65.914403 1.99745-1.341743 25.309698-1.99745 50.622285-1.99745 75.901653 1.309969 23.969399 3.307419 39.947554 5.990906 47.937354 3.996344 3.9949-5.990906 5.990906-29.960305 5.990906-2.683487-2.682042-3.339193-5.990906-1.99745-9.985805 1.309969-1.343188 1.99745-4.680937 1.99745-9.98725-2.683487-21.316243-5.336643-56.58286-7.9898-105.863402-2.683487-5.306313-10.673286-5.990906-23.969399-1.99745-18.663086 5.336643-36.638691 8.677281-53.929704 9.98725-18.663086 1.341743-34.642685 4.680937-47.937354 9.98725-1.341743-1.311413-2.683487-6.648056-3.9949-15.979599-1.343188-6.648056-1.343188-9.98725 0-9.98725 7.988355-1.309969 21.284468-3.307419 39.947554-5.990906 10.642956-2.653157 17.291013-3.9949 19.974499-3.9949 21.284468-7.9898 45.253867-13.98215 71.905309-17.977049 0-6.648056 0-12.638962 0-17.975605-18.663086-3.996344-42.632485 0-71.905309 11.9847-1.343188 2.683487-3.339193 1.99745-5.99235-1.99745-9.331543-18.632756-13.326443-28.618561-11.9847-29.961749 1.311413-3.9949 5.99235-8.644062 13.98215-13.98215 5.306313-5.306313 11.297219-15.979599 17.977049-31.959199-10.674731 2.683487-17.977049 3.339193-21.971949 1.99745-5.336643-19.974499-7.334093-33.269168-5.990906-39.948999 0-3.9949 1.99745-5.99235 5.990906-5.99235s9.299769 0 15.978155 0c10.642956 1.341743 19.287018 1.341743 25.966849 0 0-2.651712 0.655707-5.99235 1.998894-9.98725 3.9949-15.979599 7.988355-27.276818 11.983255-33.956649-1.341743-5.304869-18.663086-7.302319-51.932254-5.99235l-3.9949 0c-15.978155 2.683487-23.313693 13.326443-21.971949 31.959199-1.341743 22.657986-5.990906 41.289298-13.98215 55.927154-1.341743 1.341743-4.680937 7.334093-9.98725 17.977049-5.336643 11.9847-9.985805 20.66198-13.98215 25.966849-15.978155 27.962855-21.971949 47.93591-17.975605 59.920609 2.653157 9.331543 2.653157 14.668186 0 15.979599-10.674731 10.673286-24.655436 23.313693-41.946449 37.950104-3.9949 3.9949-7.334093 6.678386-9.985805 7.9898-10.674731 5.335199-24.655436 8.675836-41.946449 9.985805C418.232508 616.222691 438.893044 587.572355 458.867543 567.597856z" p-id="15356" fill="#1296db"></path></svg>