<?xml version="1.0" standalone="no"?><!DOCTYPE svg PUBLIC "-//W3C//DTD SVG 1.1//EN" "http://www.w3.org/Graphics/SVG/1.1/DTD/svg11.dtd"><svg t="1557035322070" class="icon" style="" viewBox="0 0 1024 1024" version="1.1" xmlns="http://www.w3.org/2000/svg" p-id="11540" xmlns:xlink="http://www.w3.org/1999/xlink" width="128" height="128"><defs><style type="text/css"></style></defs><path d="M608 960H64c-38.4 0-64-25.6-64-64V128c0-38.4 25.6-64 64-64h704c38.4 0 64 25.6 64 64v345.6h-64V128H64v768h480l64 64z" fill="#5282EF" p-id="11541"></path><path d="M736 512c121.6 0 224 102.4 224 224S857.6 960 736 960 512 857.6 512 736 614.4 512 736 512z m0-64C576 448 448 576 448 736S576 1024 736 1024s288-128 288-288S896 448 736 448z m-512-448c19.2 0 32 12.8 32 32v128c0 19.2-12.8 32-32 32S192 179.2 192 160v-128c0-19.2 12.8-32 32-32z m384 0c19.2 0 32 12.8 32 32v128c0 19.2-12.8 32-32 32S576 179.2 576 160v-128c0-19.2 12.8-32 32-32z m-448 320h512c19.2 0 32 12.8 32 32s-12.8 32-32 32h-512c-19.2 0-32-12.8-32-32s12.8-32 32-32z m0 192h256c19.2 0 32 12.8 32 32s-12.8 32-32 32h-256c-19.2 0-32-12.8-32-32s12.8-32 32-32z m0 192h192c19.2 0 32 12.8 32 32s-12.8 32-32 32h-192c-19.2 0-32-12.8-32-32s12.8-32 32-32z m716.8 102.4h-102.4c-38.4 0-64-25.6-64-64V608c0-19.2 12.8-32 32-32s32 12.8 32 32v140.8h102.4c12.8 0 25.6 12.8 25.6 25.6s-12.8 32-25.6 32z" fill="#5282EF" p-id="11542"></path></svg>