<?xml version="1.0" standalone="no"?><!DOCTYPE svg PUBLIC "-//W3C//DTD SVG 1.1//EN" "http://www.w3.org/Graphics/SVG/1.1/DTD/svg11.dtd"><svg t="1551767755903" class="icon" style="" viewBox="0 0 1024 1024" version="1.1" xmlns="http://www.w3.org/2000/svg" p-id="12502" xmlns:xlink="http://www.w3.org/1999/xlink" width="200" height="200"><defs><style type="text/css"></style></defs><path d="M212.992 526.336 212.992 526.336 212.992 526.336 215.04 526.336 212.992 526.336Z" p-id="12503"></path><path d="M813.056 768l96.256 0c20.48 0 38.912 16.384 38.912 38.912l0 96.256c0 20.48-16.384 38.912-38.912 38.912l-96.256 0c-20.48 0-38.912-16.384-38.912-38.912l0-38.912-18.432 0c-53.248 0-96.256-43.008-96.256-96.256L659.456 614.4l-96.256 0 0 192.512c0 20.48-16.384 38.912-38.912 38.912L120.832 845.824c-20.48 0-38.912-16.384-38.912-38.912L81.92 401.408c0-20.48 16.384-38.912 38.912-38.912l192.512 0L313.344 190.464 120.832 190.464C98.304 190.464 81.92 174.08 81.92 151.552L81.92 112.64c0-20.48 16.384-38.912 38.912-38.912l788.48 0c20.48 0 38.912 16.384 38.912 38.912l0 38.912c0 20.48-16.384 38.912-38.912 38.912L331.776 190.464l0 174.08 192.512 0c20.48 0 38.912 16.384 38.912 38.912L563.2 593.92l96.256 0 0-153.6c0-53.248 43.008-96.256 96.256-96.256l18.432 0 0-38.912c0-20.48 16.384-38.912 38.912-38.912l96.256 0c20.48 0 38.912 16.384 38.912 38.912l0 96.256c0 20.48-16.384 38.912-38.912 38.912l-96.256 0c-20.48 0-38.912-16.384-38.912-38.912l0-38.912-18.432 0c-43.008 0-77.824 34.816-77.824 77.824L677.888 593.92l96.256 0 0-38.912c0-20.48 16.384-38.912 38.912-38.912l96.256 0c20.48 0 38.912 16.384 38.912 38.912l0 96.256c0 20.48-16.384 38.912-38.912 38.912l-96.256 0c-20.48 0-38.912-16.384-38.912-38.912L774.144 614.4l-96.256 0 0 153.6c0 43.008 34.816 77.824 77.824 77.824l18.432 0 0-38.912C774.144 784.384 792.576 768 813.056 768z" p-id="12504"></path></svg>