<?xml version="1.0" standalone="no"?><!DOCTYPE svg PUBLIC "-//W3C//DTD SVG 1.1//EN" "http://www.w3.org/Graphics/SVG/1.1/DTD/svg11.dtd"><svg t="1554345675178" class="icon" style="" viewBox="0 0 1024 1024" version="1.1" xmlns="http://www.w3.org/2000/svg" p-id="9623" xmlns:xlink="http://www.w3.org/1999/xlink" width="200" height="200"><defs><style type="text/css"></style></defs><path d="M831.7 931H197.5c-55.2 0-100-44.8-100-100V196.8c0-55.2 44.8-100 100-100h634.2c55.2 0 100 44.8 100 100V831c0 55.2-44.8 100-100 100z" fill="#18C7FF" p-id="9624"></path><path d="M308.6 455.1L494 536.5c16.4 7.5 23.4 7.5 41.2 0l185.4-81.4c13.7-6.2 14.1-32.6 0-40.2l-185.4-95.6c-14.6-8.4-24.8-8-41.2 0l-185.4 95.6c-14.1 8.9-14.6 32.6 0 40.2z m0 85.3L494 621.8c16.4 7.5 23.4 7.5 41.2 0l185.4-81.4c9.1-4.2 12.5-23.8 12.5-34.3-11.9 5.8-28.8 14.1-29.1 14.2l-189.4 85.2-189.3-85.2c0.6 0.4-16.8-7.3-29.1-14.2-0.1 10.2 2.6 29.1 12.4 34.3z m206 150.4l-189.3-85.3c0.6 0.4-16.8-7.3-29.1-14.2 0 10.3 2.7 29.2 12.5 34.3L494 707c16.4 7.5 23.4 7.5 41.2 0l185.4-81.4c9.1-4.2 12.5-23.8 12.5-34.3-11.9 5.8-28.8 14.1-29.1 14.2l-189.4 85.3z m0 0" fill="#FFFFFF" p-id="9625"></path><path d="M636.3 336.9m-23.9 0a23.9 23.9 0 1 0 47.8 0 23.9 23.9 0 1 0-47.8 0Z" fill="#18C7FF" p-id="9626"></path><path d="M636.3 365.7c-15.9 0-28.9-12.9-28.9-28.9 0-15.9 12.9-28.9 28.9-28.9 15.9 0 28.9 12.9 28.9 28.9 0 16-12.9 28.9-28.9 28.9z m0-47.7c-10.4 0-18.9 8.5-18.9 18.9 0 10.4 8.5 18.9 18.9 18.9s18.9-8.5 18.9-18.9c0-10.5-8.5-18.9-18.9-18.9z" fill="#FFFFFF" p-id="9627"></path><path d="M392.4 336.9m-23.9 0a23.9 23.9 0 1 0 47.8 0 23.9 23.9 0 1 0-47.8 0Z" fill="#18C7FF" p-id="9628"></path><path d="M392.4 365.7c-15.9 0-28.9-12.9-28.9-28.9 0-15.9 12.9-28.9 28.9-28.9 15.9 0 28.9 12.9 28.9 28.9 0 16-13 28.9-28.9 28.9z m0-47.7c-10.4 0-18.9 8.5-18.9 18.9 0 10.4 8.5 18.9 18.9 18.9 10.4 0 18.9-8.5 18.9-18.9 0-10.5-8.5-18.9-18.9-18.9z" fill="#FFFFFF" p-id="9629"></path><path d="M392.4 693.3m-23.9 0a23.9 23.9 0 1 0 47.8 0 23.9 23.9 0 1 0-47.8 0Z" fill="#18C7FF" p-id="9630"></path><path d="M392.4 722.1c-15.9 0-28.9-12.9-28.9-28.9 0-15.9 12.9-28.9 28.9-28.9 15.9 0 28.9 12.9 28.9 28.9 0 16-13 28.9-28.9 28.9z m0-47.7c-10.4 0-18.9 8.5-18.9 18.9s8.5 18.9 18.9 18.9c10.4 0 18.9-8.5 18.9-18.9s-8.5-18.9-18.9-18.9z" fill="#FFFFFF" p-id="9631"></path><path d="M636.3 693.3m-23.9 0a23.9 23.9 0 1 0 47.8 0 23.9 23.9 0 1 0-47.8 0Z" fill="#18C7FF" p-id="9632"></path><path d="M636.3 722.1c-15.9 0-28.9-12.9-28.9-28.9 0-15.9 12.9-28.9 28.9-28.9 15.9 0 28.9 12.9 28.9 28.9 0 16-12.9 28.9-28.9 28.9z m0-47.7c-10.4 0-18.9 8.5-18.9 18.9s8.5 18.9 18.9 18.9 18.9-8.5 18.9-18.9-8.5-18.9-18.9-18.9z" fill="#FFFFFF" p-id="9633"></path></svg>