<?xml version="1.0" standalone="no"?><!DOCTYPE svg PUBLIC "-//W3C//DTD SVG 1.1//EN" "http://www.w3.org/Graphics/SVG/1.1/DTD/svg11.dtd"><svg t="1548035076761" class="icon" style="" viewBox="0 0 1024 1024" version="1.1" xmlns="http://www.w3.org/2000/svg" p-id="5747" xmlns:xlink="http://www.w3.org/1999/xlink" width="200" height="200"><defs><style type="text/css"></style></defs><path d="M710.4 352l115.2 57.6c-64 134.4-352 96-448 19.2 204.8 256 499.2 172.8 537.6 57.6 19.2 44.8 64 128 64 128l19.2-288-288 25.6zM256 390.4c-6.4 0-19.2 6.4-19.2 19.2v384c0 6.4 6.4 19.2 19.2 19.2h32c6.4 0 19.2-6.4 19.2-19.2v-384c0-6.4-6.4-19.2-19.2-19.2H256zM396.8 806.4h32c6.4 0 19.2-6.4 19.2-19.2v-140.8c0-6.4-6.4-19.2-19.2-19.2h-32c-12.8 6.4-19.2 12.8-19.2 19.2v140.8c0 12.8 6.4 19.2 19.2 19.2zM563.2 806.4c6.4 0 19.2-6.4 19.2-19.2v-140.8c0-6.4-6.4-12.8-19.2-12.8h-25.6c-6.4 0-19.2 6.4-19.2 19.2v140.8c0 6.4 6.4 19.2 19.2 19.2h25.6z" p-id="5748"></path><path d="M716.8 736c-12.8 0-25.6 12.8-25.6 25.6v115.2c0 19.2-12.8 32-32 32H172.8c-19.2 0-32-12.8-32-32v-576h646.4c12.8 0 25.6-12.8 25.6-25.6s-12.8-25.6-25.6-25.6H627.2V140.8c0-38.4-32-64-64-64H275.2c-38.4 0-64 32-64 64v108.8H44.8c-12.8 0-25.6 12.8-25.6 25.6s12.8 25.6 25.6 25.6h51.2v576c0 44.8 32 76.8 76.8 76.8h486.4c44.8 0 76.8-32 76.8-76.8v-115.2c6.4-12.8-6.4-25.6-19.2-25.6zM256 140.8c0-12.8 12.8-19.2 19.2-19.2h288c12.8 0 19.2 6.4 19.2 19.2v108.8H256V140.8z" p-id="5749"></path></svg>