<?xml version="1.0" standalone="no"?><!DOCTYPE svg PUBLIC "-//W3C//DTD SVG 1.1//EN" "http://www.w3.org/Graphics/SVG/1.1/DTD/svg11.dtd"><svg t="1548811821084" class="icon" style="" viewBox="0 0 1024 1024" version="1.1" xmlns="http://www.w3.org/2000/svg" p-id="28344" xmlns:xlink="http://www.w3.org/1999/xlink" width="200" height="200"><defs><style type="text/css"></style></defs><path d="M864 0H160C72 0 0 72 0 160v704c0 88 72 160 160 160h704c88 0 160-72 160-160V160c0-88-72-160-160-160zM448 272c-134.4 38.4-206.4 172.8-166.4 307.2 38.4 134.4 177.6 206.4 307.2 166.4 83.2-22.4 150.4-94.4 166.4-172.8 4.8-16 22.4-27.2 44.8-27.2s44.8 22.4 44.8 44.8v11.2c-27.2 105.6-116.8 200-233.6 233.6-179.2 49.6-368-49.6-419.2-228.8-49.6-177.6 49.6-368 228.8-417.6 123.2-33.6 251.2 0 334.4 89.6l73.6-65.6 16 222.4c0 4.8-4.8 11.2-16 11.2l-206.4-48 68.8-62.4c-62.4-62.4-153.6-86.4-243.2-64z" p-id="28345"></path></svg>
