<?xml version="1.0" standalone="no"?><!DOCTYPE svg PUBLIC "-//W3C//DTD SVG 1.1//EN" "http://www.w3.org/Graphics/SVG/1.1/DTD/svg11.dtd"><svg t="1555642126284" class="icon" style="" viewBox="0 0 2239 1024" version="1.1" xmlns="http://www.w3.org/2000/svg" p-id="69827" xmlns:xlink="http://www.w3.org/1999/xlink" width="279.875" height="128"><defs><style type="text/css"></style></defs><path d="M290.757486 417.694476c5.207771-10.669105 13.126705-18.997638 23.815314-24.966095 10.6496-5.987962 22.762057-8.97219 36.278857-8.97219 14.29699 0 26.194895 3.257295 35.713219 9.752381 9.498819 6.495086 16.325486 15.993905 20.48 28.476952 6.241524-12.502552 14.687086-21.981867 25.35619-28.476952s23.152152-9.752381 37.449143-9.752381c27.053105 0 44.353829 8.913676 51.902171 26.741029s11.566324 37.390629 12.092952 58.728838c0 1.306819 0 2.672152 0 4.096 0 1.443352 0 2.808686 0 4.096l0 100.293486-35.498667 0 0-93.252267c0-12.73661-0.195048-22.313448-0.585143-28.672s-1.2288-11.644343-2.535619-15.818362c-2.340571-8.328533-6.300038-14.765105-11.897905-19.309714-5.597867-4.54461-12.561067-6.826667-20.870095-6.826667-10.415543 0-19.69981 3.588876-27.911314 10.727619-8.192 7.158248-13.848381 16.715581-16.969143 28.672-0.253562 0.78019-0.44861 1.501867-0.585143 2.145524-0.136533 0.643657-0.331581 1.2288-0.585143 1.755429-1.033752 4.427581-1.696914 9.303771-1.950476 14.628571-0.253562 5.3248-0.390095 13.731352-0.390095 25.180648l0 80.769219-35.498667 0 0-97.93341c0-11.702857-0.136533-20.343467-0.390095-25.941333-0.273067-5.597867-1.053257-10.337524-2.340571-14.238476-2.594133-8.328533-6.631619-14.687086-12.092952-19.114667s-11.975924-6.631619-19.504762-6.631619c-14.570057 0-26.604495 6.18301-36.08381 18.529524-9.498819 12.366019-14.238476 28.164876-14.238476 47.416076l0 13.653333 0 84.280076-35.498667 0 0-107.295695c0-7.021714 0-13.984914 0-20.870095 0-6.885181-0.136533-13.848381-0.390095-20.870095-0.273067-7.021714-0.526629-13.984914-0.78019-20.870095-0.273067-6.885181-0.663162-13.848381-1.170286-20.870095l32.787505 0L290.757486 417.694476z" p-id="69828" fill="#30d8df"></path><path d="M662.245181 575.722057c-0.526629 1.306819-1.111771 2.789181-1.755429 4.486095s-1.2288 3.31581-1.755429 4.87619c-6.495086 18.217448-14.823619 34.933029-24.966095 50.146743-10.161981 15.213714-26.526476 22.820571-49.171505 22.820571-1.306819 0-2.535619 0-3.705905 0s-2.282057-0.136533-3.31581-0.390095c-2.08701-0.253562-4.291048-0.585143-6.631619-0.975238-2.340571-0.390095-5.071238-0.975238-8.192-1.755429l1.950476-28.086857c2.067505 0.526629 3.822933 1.033752 5.266286 1.560381 1.423848 0.526629 2.925714 0.916724 4.486095 1.170286 1.033752 0 2.145524 0.058514 3.31581 0.195048 1.170286 0.117029 2.41859 0.195048 3.705905 0.195048 11.176229 0 19.953371-3.978971 26.331429-11.897905 6.378057-7.938438 11.254248-16.715581 14.628571-26.350933 0.253562-1.053257 0.585143-2.145524 0.975238-3.31581s0.721676-2.282057 0.975238-3.31581l-73.35741-198.226895 38.229333 0 42.539886 120.578438c3.120762 9.108724 5.461333 16.657067 7.021714 22.645029s2.594133 11.566324 3.120762 16.774095c0.526629-3.64739 1.170286-7.080229 1.950476-10.337524 0.78019-3.257295 1.67741-6.573105 2.730667-9.947429 0.507124-1.813943 1.111771-3.569371 1.755429-5.266286s1.2288-3.31581 1.755429-4.87619l44.880457-129.550629 35.128076 0L662.245181 575.722057z" p-id="69829" fill="#30d8df"></path><path d="M943.250286 564.4288c17.554286 8.777143 38.833981 14.78461 61.47901 14.78461 27.735771 0 52.233752-15.252724 52.233752-42.071771 0-55.920152-113.244648-47.14301-113.244648-115.54621 0-46.6944 37.897752-64.248686 76.731733-64.248686 12.483048 0 37.429638 2.769676 58.241219 10.630095l-2.769676 25.414705c-15.252724-6.92419-36.064305-11.09821-52.233752-11.09821-30.056838 0-50.848914 9.245257-50.848914 39.302095 0 43.905219 116.014324 38.365867 116.014324 115.54621 0 49.93219-46.6944 67.018362-82.271086 67.018362-22.645029 0-45.290057-2.769676-66.101638-11.078705L943.250286 564.4288z" p-id="69830" fill="#30d8df"></path><path d="M1299.192686 591.228343c-20.343467 8.309029-46.6944 12.931657-68.4032 12.931657-78.116571 0-107.237181-52.682362-107.237181-123.406629 0-72.109105 39.750705-123.406629 99.376762-123.406629 66.550248 0 93.83741 53.61859 93.83741 116.931048l0 14.78461-161.323886 0c0 49.912686 26.819048 90.131505 77.648457 90.131505 21.26019 0 52.233752-8.777143 66.101638-17.554286L1299.192686 591.228343zM1284.87619 464.11581c0-41.135543-16.637562-81.802971-60.094171-81.802971-42.988495 0-69.339429 42.988495-69.339429 81.802971L1284.87619 464.11581z" p-id="69831" fill="#30d8df"></path><path d="M1507.718095 560.722895l-0.916724 0c-12.951162 28.203886-45.758171 43.45661-74.878781 43.45661-67.018362 0-77.648457-45.290057-77.648457-66.550248 0-79.033295 84.124038-82.7392 145.134933-82.7392l5.539352 0 0-12.014933c0-40.218819-14.316495-60.542781-53.61859-60.542781-24.497981 0-47.611124 5.558857-69.339429 19.426743l0-28.203886c18.0224-8.777143 48.527848-16.169448 69.339429-16.169448 58.241219 0 82.7392 26.350933 82.7392 87.810438l0 103.99939c0 18.958629 0 33.275124 2.321067 49.464076L1507.718095 598.659657 1507.718095 560.722895zM1504.928914 479.836648l-8.309029 0c-50.3808 0-110.474971 5.090743-110.474971 56.856381 0 30.954057 22.176914 42.520381 48.995962 42.520381 68.4032 0 69.788038-59.626057 69.788038-85.040762L1504.928914 479.836648z" p-id="69832" fill="#30d8df"></path><path d="M1603.447467 415.607467c0-25.882819 0-35.59619-1.852952-52.701867l29.12061 0 0 45.290057 0.916724 0c10.630095-26.350933 30.505448-50.82941 60.542781-50.82941 6.92419 0 15.252724 1.384838 20.323962 2.769676l0 30.505448c-6.007467-1.852952-13.867886-2.769676-21.26019-2.769676-46.226286 0-58.709333 51.765638-58.709333 94.286019l0 116.482438-29.12061 0L1603.408457 415.607467z" p-id="69833" fill="#30d8df"></path><path d="M1902.533486 394.327771c-15.720838-6.92419-34.659962-12.014933-50.3808-12.014933-56.836876 0-88.746667 41.135543-88.746667 98.460038 0 53.61859 32.3584 98.440533 85.508876 98.440533 18.490514 0 35.59619-4.154514 53.169981-10.630095l2.769676 27.267657c-19.875352 6.92419-38.365867 8.309029-60.542781 8.309029-75.81501 0-112.776533-57.773105-112.776533-123.406629 0-72.577219 46.6944-123.406629 116.482438-123.406629 28.184381 0 48.527848 6.475581 56.836876 9.245257L1902.533486 394.327771z" p-id="69834" fill="#30d8df"></path><path d="M1954.357638 251.982019l29.12061 0 0 150.674286 0.916724 0c12.483048-25.882819 38.833981-45.290057 73.493943-45.290057 63.331962 0 80.437638 42.052267 80.437638 100.293486l0 140.980419-29.12061 0 0-140.512305c0-40.667429-7.860419-75.795505-55.920152-75.795505-51.765638 0-69.788038 48.995962-69.788038 90.131505l0 126.176305-29.12061 0L1954.377143 251.982019z" p-id="69835" fill="#30d8df"></path><path d="M928.894781 842.118095c30.837029 25.76579 36.064305 70.275657 11.605333 99.513295l0 0c-24.439467 29.257143-69.26141 32.007314-100.059429 6.202514l-162.708724-136.084724c-30.856533-25.76579-16.618057-50.7904 7.860419-80.008533l19.504762-19.504762c24.380952-29.276648 30.232381-32.046324 61.049905-6.18301L928.894781 842.118095z" p-id="69836" fill="#30d8df"></path><path d="M718.360381 666.399695c-54.983924 67.935086-138.971429 111.45021-233.179429 111.45021-76.5952 0-146.26621-28.945067-199.280152-76.205105l-56.914895 69.280914c3.393829 3.003733 6.748648 6.046476 10.318019 9.05021 166.843733 136.962438 413.169371 113.01059 550.209829-53.852648 0.214552-0.195048 0.44861-0.546133 0.643657-0.721676L718.360381 666.399695z" p-id="69837" fill="#30d8df"></path><path d="M185.217219 477.866667c0-73.181867 26.272914-140.180724 69.807543-192.238933l-70.431695-57.831619c-137.352533 167.136305-113.205638 414.14461 53.911162 551.516648l56.89539-69.202895C228.1472 655.086933 185.217219 571.509029 185.217219 477.866667z" p-id="69838" fill="#30d8df"></path><path d="M736.207238 173.767924l-59.899124 72.889295c66.491733 55.022933 108.856076 138.152229 108.856076 231.209448 0 71.484952-25.083124 137.020952-66.80381 188.552533l71.777524 59.001905C927.529448 558.2848 903.363048 311.217981 736.207238 173.767924z" p-id="69839" fill="#30d8df"></path><path d="M485.180952 177.902933c72.635733 0 139.22499 25.824305 191.127162 68.793295l59.879619-72.850286c-167.214324-137.469562-414.183619-113.283657-551.633676 53.950171l70.4512 57.812114C310.047695 219.818667 392.689371 177.902933 485.180952 177.902933z" p-id="69840" fill="#30d8df"></path></svg>