<?xml version="1.0" standalone="no"?><!DOCTYPE svg PUBLIC "-//W3C//DTD SVG 1.1//EN" "http://www.w3.org/Graphics/SVG/1.1/DTD/svg11.dtd"><svg t="1555641805132" class="icon" style="" viewBox="0 0 1024 1024" version="1.1" xmlns="http://www.w3.org/2000/svg" p-id="69311" xmlns:xlink="http://www.w3.org/1999/xlink" width="128" height="128"><defs><style type="text/css"></style></defs><path d="M307.777694 100.051376a31.47156 31.47156 0 1 1 31.47156-31.471559c0 17.379817-14.561468 31.47156-31.47156 31.471559z m0-53.078899c-12.212844 0-22.077064 9.86422-22.077064 22.077064s9.86422 22.077064 22.077064 22.077065 22.077064-9.86422 22.077064-22.077065S319.520814 46.972477 307.777694 46.972477z" fill="#FF8F67" p-id="69312"></path><path d="M874.735492 445.768807a14.561468 14.091743 90 1 0 28.183487 0 14.561468 14.091743 90 1 0-28.183487 0Z" fill="#FF8F67" p-id="69313"></path><path d="M907.616226 744.983486a14.561468 14.091743 90 1 0 28.183487 0 14.561468 14.091743 90 1 0-28.183487 0Z" fill="#CFCFCF" p-id="69314"></path><path d="M692.482281 142.79633c-13.622018 0-24.895413-11.273394-24.895412-24.895413s11.273394-24.895413 24.895412-24.895412 24.895413 11.273394 24.895413 24.895412-11.273394 24.895413-24.895413 24.895413z m0-45.093578c-11.273394 0-20.198165 8.924771-20.198165 20.198165s8.924771 20.198165 20.198165 20.198166 20.198165-8.924771 20.198166-20.198166-9.394495-20.198165-20.198166-20.198165zM172.49696 704.117431c-11.273394 0-20.66789-9.394495-20.66789-20.66789 0-11.273394 9.394495-20.66789 20.66789-20.66789 11.273394 0 20.66789 9.394495 20.66789 20.66789 0 11.743119-9.394495 20.66789-20.66789 20.66789z m0-36.638532c-8.924771 0-15.970642 7.045872-15.970642 15.970642s7.045872 15.970642 15.970642 15.970642 15.970642-7.045872 15.970643-15.970642-7.045872-15.970642-15.970643-15.970642z" fill="#4CABE0" p-id="69315"></path><path d="M469.363015 97.702752a18.319266 18.319266 0 1 0 36.638532 0 18.319266 18.319266 0 1 0-36.638532 0Z" fill="#4CABE0" p-id="69316"></path><path d="M123.175859 364.036697c-11.273394 0-20.66789-9.394495-20.667889-20.66789s9.394495-20.66789 20.667889-20.66789c11.273394 0 20.66789 9.394495 20.66789 20.66789s-8.924771 20.66789-20.66789 20.66789z m0-36.638532c-8.924771 0-15.970642 7.045872-15.970642 15.970642s7.045872 15.970642 15.970642 15.970643 15.970642-7.045872 15.970643-15.970643-7.045872-15.970642-15.970643-15.970642z" fill="#4CABE0" p-id="69317"></path><path d="M123.175859 375.310092c-17.379817 0-31.941284-14.091743-31.941284-31.941285s14.091743-31.941284 31.941284-31.941284 31.941284 14.091743 31.941285 31.941284-14.091743 31.941284-31.941285 31.941285z m0-61.533945c-16.440367 0-29.592661 13.152294-29.59266 29.59266s13.152294 29.592661 29.59266 29.592661 29.592661-13.152294 29.592661-29.592661-13.152294-29.592661-29.592661-29.59266zM55.535492 745.453211c0-1.409174 1.409174-2.348624 2.818349-2.348624s2.818349 1.409174 2.818349 2.348624v13.152294c0 1.409174-1.409174 2.348624-2.818349 2.348623s-2.818349-1.409174-2.818349-2.348623v-13.152294z m26.774312 10.80367c0.93945-0.93945 2.818349-0.469725 3.757799 0.469725 0.93945 0.93945 0.469725 2.818349-0.469725 3.757798l-10.333945 8.455046c-0.93945 0.93945-2.818349 0.469725-3.757798-0.469725-0.93945-0.93945-0.469725-2.818349 0.469724-3.757798l10.333945-8.455046z m8.924771 28.183486c1.409174 0.469725 2.348624 1.878899 1.878899 3.288073-0.469725 1.409174-1.878899 2.348624-3.288073 1.878899l-12.682569-2.818348c-1.409174-0.469725-2.348624-1.878899-1.878899-3.288074 0.469725-1.409174 1.878899-2.348624 3.288073-1.878899l12.682569 2.818349z m-16.440367 24.425688c0.469725 1.409174 0 2.818349-1.409174 3.288073-1.409174 0.469725-2.818349 0-3.288074-0.939449l-5.636697-11.743119c-0.469725-1.409174 0-2.818349 1.409174-3.288074 1.409174-0.469725 2.818349 0 3.288074 0.93945l5.636697 11.743119z m-28.653211 2.348624c-0.469725 1.409174-2.348624 1.878899-3.288073 0.939449-1.409174-0.469725-1.878899-2.348624-1.409175-3.288073l5.636698-11.743119c0.469725-1.409174 2.348624-1.878899 3.288073-0.93945 1.409174 0.469725 1.878899 2.348624 1.409174 3.288074l-5.636697 11.743119z m-19.72844-21.60734c-1.409174 0.469725-2.818349-0.469725-3.288074-1.878899-0.469725-1.409174 0.469725-2.818349 1.878899-3.288073l12.682569-2.818349c1.409174-0.469725 2.818349 0.469725 3.288074 1.878899 0.469725 1.409174-0.469725 2.818349-1.8789 3.288074l-12.682568 2.818348z m4.227523-29.122935c-0.93945-0.93945-1.409174-2.348624-0.469725-3.757798 0.93945-0.93945 2.348624-1.409174 3.757798-0.469725l10.333945 8.455046c0.93945 0.93945 1.409174 2.348624 0.469725 3.757798-0.93945 0.93945-2.348624 1.409174-3.757798 0.469725l-10.333945-8.455046zM776.093291 11.743119c0-1.409174 1.409174-2.348624 2.818348-2.348624s2.818349 1.409174 2.818349 2.348624v13.152294c0 1.409174-1.409174 2.348624-2.818349 2.348624s-2.818349-1.409174-2.818348-2.348624V11.743119z m26.774312 10.80367c0.93945-0.93945 2.818349-0.469725 3.757798 0.469725 0.93945 0.93945 0.469725 2.818349-0.469725 3.757798l-10.333945 8.455046c-0.93945 0.93945-2.818349 0.469725-3.757798-0.469725-0.93945-0.93945-0.469725-2.818349 0.469725-3.757798l10.333945-8.455046z m8.455045 28.653211c1.409174 0.469725 2.348624 1.878899 1.878899 3.288073-0.469725 1.409174-1.878899 2.348624-3.288073 1.878899l-12.682569-2.818348c-1.409174-0.469725-2.348624-1.878899-1.878899-3.288074 0.469725-1.409174 1.878899-2.348624 3.288074-1.878899l12.682568 2.818349z m-15.970642 23.955963c0.469725 1.409174 0 2.818349-1.409174 3.288074-1.409174 0.469725-2.818349 0-3.288074-0.93945l-5.636697-11.743119c-0.469725-1.409174 0-2.818349 1.409175-3.288074 1.409174-0.469725 2.818349 0 3.288073 0.93945l5.636697 11.743119z m-29.122936 2.348624c-0.469725 1.409174-2.348624 1.878899-3.288073 0.93945-1.409174-0.469725-1.878899-2.348624-1.409174-3.288074l5.636697-11.743119c0.469725-1.409174 2.348624-1.878899 3.288073-0.93945 1.409174 0.469725 1.878899 2.348624 1.409175 3.288074l-5.636698 11.743119zM746.50063 55.897248c-1.409174 0.469725-2.818349-0.469725-3.288073-1.878899-0.469725-1.409174 0.469725-2.818349 1.878899-3.288074l12.682569-2.818348c1.409174-0.469725 2.818349 0.469725 3.288073 1.878899 0.469725 1.409174-0.469725 2.818349-1.878899 3.288073l-12.682569 2.818349z m4.227523-29.122936c-0.93945-0.93945-1.409174-2.348624-0.469725-3.757798 0.93945-0.93945 2.348624-1.409174 3.757798-0.469725l10.333945 8.455046c0.93945 0.93945 1.409174 2.348624 0.469725 3.757798-0.93945 0.93945-2.348624 1.409174-3.757798 0.469725l-10.333945-8.455046z" fill="#FF8F67" p-id="69318"></path><path d="M968.210722 536.425688c0-1.409174 1.409174-2.348624 2.818348-2.348624s2.818349 1.409174 2.818349 2.348624v13.152294c0 1.409174-1.409174 2.348624-2.818349 2.348624s-2.818349-1.409174-2.818348-2.348624v-13.152294z m27.244036 10.80367c0.93945-0.93945 2.818349-0.469725 3.757799 0.469725 0.93945 0.93945 0.469725 2.818349-0.469725 3.757798l-10.333945 8.455046c-0.93945 0.93945-2.818349 0.469725-3.757798-0.469725-0.93945-0.93945-0.469725-2.818349 0.469725-3.757798l10.333944-8.455046z m8.455046 28.183486c1.409174 0.469725 2.348624 1.878899 1.878899 3.288073-0.469725 1.409174-1.878899 2.348624-3.288073 1.8789l-12.682569-2.818349c-1.409174-0.469725-2.348624-1.878899-1.878899-3.288074 0.469725-1.409174 1.878899-2.348624 3.288074-1.878899l12.682568 2.818349z m-16.440367 24.425688c0.469725 1.409174 0 2.818349-1.409174 3.288074-1.409174 0.469725-2.818349 0-3.288073-0.93945l-5.636698-11.743119c-0.469725-1.409174 0-2.818349 1.409175-3.288074 1.409174-0.469725 2.818349 0 3.288073 0.93945l5.636697 11.743119z m-28.653211 2.348624c-0.469725 1.409174-2.348624 1.878899-3.288073 0.93945-1.409174-0.469725-1.878899-2.348624-1.409174-3.288074l5.636697-11.743119c0.469725-1.409174 2.348624-1.878899 3.288073-0.93945 1.409174 0.469725 1.878899 2.348624 1.409175 3.288074l-5.636698 11.743119z m-19.72844-21.607339c-1.409174 0.469725-2.818349-0.469725-3.288073-1.8789-0.469725-1.409174 0.469725-2.818349 1.878899-3.288073l12.682569-2.818349c1.409174-0.469725 2.818349 0.469725 3.288073 1.878899 0.469725 1.409174-0.469725 2.818349-1.878899 3.288074l-12.682569 2.818349z m4.227523-29.122936c-0.93945-0.93945-1.409174-2.348624-0.469725-3.757798 0.93945-0.93945 2.348624-1.409174 3.757798-0.469725l10.333945 8.455046c0.93945 0.93945 1.409174 2.348624 0.469725 3.757798-0.93945 0.93945-2.348624 1.409174-3.757798 0.469725l-10.333945-8.455046z" fill="#4CABE0" p-id="69319"></path><path d="M194.574025 106.157798c0-1.409174 1.409174-2.348624 2.818348-2.348624s2.818349 1.409174 2.818349 2.348624v13.152294c0 1.409174-1.409174 2.348624-2.818349 2.348624s-2.818349-1.409174-2.818348-2.348624v-13.152294z m26.774311 10.80367c0.93945-0.93945 2.818349-0.469725 3.757799 0.469725 0.93945 0.93945 0.469725 2.818349-0.469725 3.757798l-10.333945 8.455046c-0.93945 0.93945-2.818349 0.469725-3.757798-0.469725-0.93945-0.93945-0.469725-2.818349 0.469725-3.757798l10.333944-8.455046z m8.924771 28.183486c1.409174 0.469725 2.348624 1.878899 1.878899 3.288074-0.469725 1.409174-1.878899 2.348624-3.288073 1.878899l-12.682569-2.818349c-1.409174-0.469725-2.348624-1.878899-1.878899-3.288073 0.469725-1.409174 1.878899-2.348624 3.288073-1.878899l12.682569 2.818348z m-16.440367 24.425688c0.469725 1.409174 0 2.818349-1.409174 3.288074-1.409174 0.469725-2.818349 0-3.288074-0.93945l-5.636697-11.743119c-0.469725-1.409174 0-2.818349 1.409175-3.288074 1.409174-0.469725 2.818349 0 3.288073 0.93945l5.636697 11.743119z m-29.122936 2.348624c-0.469725 1.409174-2.348624 1.878899-3.288073 0.93945-1.409174-0.469725-1.878899-2.348624-1.409174-3.288074l5.636697-11.743119c0.469725-1.409174 2.348624-1.878899 3.288073-0.93945 1.409174 0.469725 1.878899 2.348624 1.409175 3.288074l-5.636698 11.743119zM164.981364 150.311927c-1.409174 0.469725-2.818349-0.469725-3.288073-1.878899-0.469725-1.409174 0.469725-2.818349 1.878899-3.288074l12.682568-2.818348c1.409174-0.469725 2.818349 0.469725 3.288074 1.878899 0.469725 1.409174-0.469725 2.818349-1.878899 3.288073l-12.682569 2.818349z m4.227523-29.122936c-0.93945-0.93945-1.409174-2.348624-0.469725-3.757798 0.93945-0.93945 2.348624-1.409174 3.757798-0.469725l10.333945 8.455046c0.93945 0.93945 1.409174 2.348624 0.469725 3.757798-0.93945 0.93945-2.348624 1.409174-3.757798 0.469725l-10.333945-8.455046z" fill="#FAAF95" p-id="69320"></path><path d="M182.830905 175.677064c-0.93945 0-1.409174 0-2.348624-0.469725-2.348624-1.409174-3.288073-4.227523-2.348623-6.576146l5.636697-11.74312c0.469725-0.93945 1.409174-1.878899 2.818348-2.348623 1.409174-0.469725 2.348624-0.469725 3.757799 0.469724 0.93945 0.469725 1.878899 1.409174 2.348623 2.818349 0.469725 1.409174 0.469725 2.348624 0 3.757798l-5.636697 11.743119c-0.93945 1.409174-2.818349 2.348624-4.227523 2.348624z m5.636698-19.258715H187.528153c-0.469725 0-0.93945 0.469725-1.409174 1.409174l-5.636698 11.743119c-0.469725 1.409174 0 2.818349 1.409175 3.288074 1.409174 0.469725 2.818349 0 3.288073-0.93945l5.636697-11.743119c0.469725-0.469725 0.469725-1.409174 0-1.878899 0-0.469725-0.469725-1.409174-1.409174-1.409175-0.469725-0.469725-0.469725-0.469725-0.939449-0.469724z m23.016513 19.258715c-1.878899 0-3.757798-0.93945-4.227523-2.818348L201.619896 161.115596c-1.409174-2.348624 0-5.166972 2.348624-6.576146 2.348624-0.93945 5.636697 0 6.576147 2.348623l5.636697 11.74312c0.469725 0.93945 0.469725 2.348624 0 3.757798-0.469725 1.409174-1.409174 2.348624-2.348624 2.818348-0.93945 0.469725-1.409174 0.469725-2.348624 0.469725z m-5.636697-19.258715c-0.469725 0-0.93945 0-0.939449 0.469724-1.409174 0.469725-1.878899 2.348624-1.409175 3.288074l5.636697 11.743119c0.469725 1.409174 2.348624 1.878899 3.288074 0.93945l1.409174-1.409175v-1.878899l-5.636697-11.743119c-0.469725-0.93945-1.409174-1.409174-2.348624-1.409174z m-41.33578-3.757799c-0.93945 0-1.878899-0.469725-2.818348-0.939449-0.93945-0.93945-1.878899-1.878899-2.348624-3.288073-0.469725-2.818349 0.93945-5.166972 3.757798-6.106422l12.682569-2.818349c1.409174-0.469725 2.348624 0 3.757798 0.469725 0.93945 0.93945 1.878899 1.878899 2.348624 3.288073 0.469725 1.409174 0 2.818349-0.469725 3.757798-0.469725 0.93945-1.878899 1.878899-2.818349 2.348624l-12.682568 2.818349c-0.469725 0.469725-0.93945 0.469725-1.409175 0.469724z m12.682569-10.333944h-0.469725l-12.682569 2.818348c-1.409174 0.469725-2.348624 1.878899-1.878899 3.288074 0 0.469725 0.469725 1.409174 0.93945 1.409174 0.93945 0.469725 1.409174 0.469725 1.878899 0.469725l12.682569-2.818349c0.469725 0 1.409174-0.469725 1.409174-0.93945 0.469725-0.469725 0.469725-1.409174 0.469725-1.878899s-0.469725-1.409174-0.93945-1.409174c-0.469725-0.93945-0.93945-0.93945-1.409174-0.939449z m52.13945 10.333944h-0.93945l-12.682569-3.288073c-1.409174-0.469725-2.348624-0.93945-2.818348-2.348624-0.469725-0.93945-0.93945-2.348624-0.469725-3.757798 0.469725-2.818349 3.288073-4.227523 6.106422-3.757798l12.682569 2.818349c1.409174 0.469725 2.348624 0.93945 2.818348 2.348623 0.469725 0.93945 0.93945 2.348624 0.469725 3.757799-0.469725 1.409174-0.93945 2.348624-2.348624 3.288073-0.93945 0.469725-1.878899 0.93945-2.818348 0.939449z m-12.682569-10.333944c-0.93945 0-2.348624 0.93945-2.348624 1.878899 0 0.469725 0 1.409174 0.469725 1.878899 0.469725 0.469725 0.93945 0.93945 1.409174 0.939449l12.682569 2.818349c0.469725 0 1.409174 0 1.878899-0.469725 0.469725-0.469725 0.93945-0.93945 0.939449-1.409174 0-0.469725 0-1.409174-0.469724-1.878899-0.469725-0.469725-0.93945-0.93945-1.409175-0.93945l-12.682568-2.818348h-0.469725z m-3.757798-10.333945h-0.469725c-1.409174 0-2.348624-0.93945-3.288074-1.8789-0.93945-0.93945-1.409174-2.348624-0.939449-3.757798s0.93945-2.348624 1.878899-3.288073l10.333945-8.455046c1.878899-1.878899 5.166972-1.409174 7.045871 0.93945 1.878899 1.878899 1.409174 5.166972-0.469724 7.045871l-10.333945 8.455046c-1.409174 0.93945-2.818349 0.93945-3.757798 0.93945z m8.455045-15.031193L211.014392 125.416514c-0.469725 0.469725-0.93945 0.93945-0.93945 1.878899 0 0.469725 0 1.409174 0.469725 1.878899s0.93945 0.93945 1.878899 0.939449c0.469725 0 1.409174 0 1.878899-0.469724l10.333945-8.455046c0.93945-0.93945 1.409174-2.348624 0.469725-3.757798-0.93945-0.93945-2.348624-1.409174-3.757799-0.469725z m-39.926605 15.031193c-0.93945 0-2.348624-0.469725-2.818349-0.93945l-10.333945-8.455046c-0.93945-0.93945-1.409174-1.878899-1.878899-3.288073 0-1.409174 0.469725-2.818349 0.93945-3.757798 0.93945-0.93945 1.878899-1.878899 3.288073-1.8789 1.409174 0 2.348624 0 3.757798 0.93945l10.333945 8.455046c0.93945 0.93945 1.409174 1.878899 1.878899 3.288073 0 1.409174-0.469725 2.818349-0.939449 3.757798-0.93945 0.93945-1.878899 1.878899-3.288073 1.8789h-0.93945z m-10.333945-15.500918c-0.93945 0-1.409174 0.469725-1.878899 0.93945-0.469725 0.469725-0.469725 1.409174-0.469725 1.878899 0 0.469725 0.469725 1.409174 0.93945 1.878899l10.333945 8.455046c0.469725 0.469725 0.93945 0.469725 1.878899 0.469724 0.469725 0 1.409174-0.469725 1.878899-0.939449 0.469725-0.469725 0.469725-1.409174 0.469725-1.878899 0-0.469725-0.469725-1.409174-0.93945-1.878899l-10.333945-8.455046c-0.93945-0.469725-1.409174-0.469725-1.878899-0.469725z m25.834862 7.985321c-2.818349 0-5.166972-2.348624-5.166972-4.697247v-13.152294c0-2.818349 2.348624-4.697248 5.166972-4.697248 2.818349 0 5.166972 2.348624 5.166973 4.697248v13.152294c0 2.348624-2.348624 4.697248-5.166973 4.697247z m0-20.66789c-1.409174 0-2.818349 0.93945-2.818348 2.348624v13.152294c0 1.409174 1.409174 2.348624 2.818348 2.348624s2.818349-0.93945 2.818349-2.348624v-13.152294c0-1.409174-1.409174-2.348624-2.818349-2.348624z" fill="#FFFFFF" p-id="69321"></path><path d="M195.043749 516.227523l-20.66789-2.818349 16.440367-12.212844 2.818349-20.66789 12.212844 16.440367 20.66789 2.818349-16.440367 12.212844-2.818349 20.66789z" fill="#FAAF95" p-id="69322"></path><path d="M910.9043 176.616514l-20.198165-2.348624 16.440367-12.682569 2.818348-20.198165 12.212844 15.970642 20.66789 2.818349-16.440367 12.682569-2.818348 20.198165z" fill="#FAAF95" p-id="69323"></path><path d="M830.581364 300.623853V206.209174c4.227523-24.425688 20.198165-36.638532 47.442202-37.108257 27.244037 0 43.214679 12.212844 46.502752 37.108257V300.623853h-93.944954z" fill="#E2E3E4" p-id="69324"></path><path d="M929.693291 305.321101h-103.809175V205.269725c4.697248-26.774312 22.546789-40.866055 52.13945-40.866055 29.592661-0.469725 47.442202 14.091743 51.2 40.866055V305.321101z m-94.414679-9.394495H920.298795V206.678899c-3.288073-22.077064-16.910092-32.880734-41.33578-32.880734h-0.469724c-24.895413 0-38.987156 10.80367-42.744955 32.880734v89.247707z" fill="#BDBCBC" p-id="69325"></path><path d="M232.621731 1019.302752c335.383486-0.469725 516.697248-0.469725 544.411009 0s44.623853-9.394495 50.730275-29.122935V204.330275c4.227523-23.955963 18.319266-35.699083 42.27523-35.229358 36.168807 0.469725-559.442202 0-583.86789 0s-53.548624 28.183486-53.548624 54.018349V1019.302752z" fill="#FFFFFF" p-id="69326"></path><path d="M777.97219 1024h-0.93945c-27.713761-0.469725-210.906422-0.469725-544.411009 0h-4.697248V223.119266C227.924483 195.875229 258.926318 164.40367 286.170355 164.40367h49.321101c122.12844 0 478.649541 0.469725 529.849541 0h5.636697c3.288073 0.469725 5.166972 1.878899 5.166973 4.697247 0 3.288073-1.878899 4.227523-5.166973 4.697248h-6.106422c-18.788991 0.93945-29.122936 10.80367-32.880734 31.001835V991.119266c-6.106422 22.077064-24.425688 32.880734-54.018348 32.880734z m-158.297248-9.394495H778.441914c24.895413 0 39.456881-8.455046 45.093578-25.365138V203.390826c2.348624-13.152294 7.515596-23.016514 15.500918-29.592661H286.170355c-22.546789 0-48.851376 26.774312-48.851376 49.321101V1014.605505H619.674942z" fill="#BDBCBC" p-id="69327"></path><path d="M290.867603 441.541284h431.677064v9.394496H290.867603zM291.337327 573.06422h349.47523v9.394496H291.337327z" fill="#979797" p-id="69328"></path><path d="M291.337327 709.284404h417.115597v9.394495H291.337327z" fill="#979797" p-id="69329"></path><path d="M187.528153 875.566972h548.168807v109.445872c5.166972 23.955963 22.546789 35.229358 51.2 34.289908 28.653211-1.409174-154.53945-1.409174-550.047706 0-32.880734-5.166972-49.321101-20.66789-49.321101-45.093578v-98.642202z" fill="#E2E3E4" p-id="69330"></path><path d="M782.669437 1024c-4.227523 0-7.985321-0.469725-11.743119-0.93945-55.427523-0.469725-234.392661-0.469725-533.607339 0.93945h-0.93945c-35.699083-6.106422-53.548624-22.546789-53.548624-50.26055v-102.869725h557.563303v113.673394c3.757798 16.910092 14.091743 26.774312 31.47156 29.122936 8.455046 0 13.622018 0 16.910091 0.469725 5.636697 0.469725 5.636697 1.878899 5.636698 4.227523 0 4.697248-4.227523 4.697248-7.515597 5.166972-1.409174 0.469725-2.818349 0.469725-4.227523 0.469725zM192.225401 880.26422v93.47523c0 22.077064 14.561468 35.699083 45.093578 40.39633 183.192661-0.469725 322.700917-0.93945 414.297247-0.93945h95.354129c-7.985321-6.106422-13.152294-15.500917-15.970642-27.713761v-105.688074H192.225401z" fill="#BDBCBC" p-id="69331"></path><path d="M907.146502 922.069725l-144.67523-145.144954 23.486239-23.486239 144.675229 144.675229-23.486238 23.955964z m-138.099083-145.144954l138.099083 138.099082 16.440367-16.440367-138.099083-138.099082-16.440367 16.440367z" fill="#FF8F67" p-id="69332"></path><path d="M793.059749 807.893725l23.580184-23.580184c5.646092-5.650789 14.279633-5.650789 19.930422 0l124.885725 124.885725c5.646092 5.646092 5.646092 14.279633 0 19.925725l-23.580184 23.580183c-5.650789 5.650789-14.28433 5.650789-19.930422 0l-124.885725-124.885724c-5.650789-5.646092-5.650789-14.279633 0-19.925725z" fill="#FF8F67" p-id="69333"></path><path d="M927.908336 956.030826c-4.650275 0-8.304734-1.662826-11.625688-4.979083l-121.56477-121.569468c-2.98745-2.98745-4.650275-7.308917-4.979083-11.625688 0-4.650275 1.658128-8.304734 4.979083-11.625688l20.259229-20.259229c6.313101-6.313101 16.942972-6.313101 23.251376 0l121.564771 121.56477c2.992147 2.98745 4.650275 7.308917 4.98378 11.625688 0 4.650275-1.662826 8.304734-4.979083 11.625689l-20.263926 20.259229c-3.320954 3.320954-6.975413 4.979083-11.625689 4.979082z m-101.305541-170.392661c-3.320954 0-5.974899 1.329321-8.300037 3.654459l-20.263926 20.259229c-2.325138 2.325138-3.320954 5.317284-3.654459 8.304734 0 3.320954 1.329321 5.979596 3.654459 8.304734l121.564771 121.564771c4.321468 4.321468 12.292697 4.321468 16.609467 0l20.25923-20.25923c2.325138-2.325138 3.320954-5.317284 3.654458-8.304734 0-3.320954-1.329321-5.979596-3.654458-8.304734l-121.564771-121.56477c-2.325138-2.325138-5.312587-3.320954-8.304734-3.654459zM829.641914 761.423853l-7.985321-4.697247c11.743119-20.66789 18.319266-44.623853 18.319266-68.579817 0-76.095413-62.943119-138.568807-139.508256-138.568807v-9.394496c82.201835 0 148.902752 66.231193 148.902752 147.963303 0 25.834862-7.045872 51.2-19.728441 73.277064zM586.324483 779.273394c-49.321101-65.761468-36.638532-158.766972 28.653211-208.088073l5.636698 7.515596c-61.06422 46.033028-73.277064 133.401835-26.774312 194.93578l-7.515597 5.636697zM698.118979 837.519266c-34.759633 0-68.579817-12.212844-95.354129-34.759633l6.106422-7.045872c29.592661 24.895413 68.110092 36.168807 106.627523 31.47156l1.409175 9.394496c-6.576147 0.93945-12.682569 0.93945-18.788991 0.939449z" fill="#FF8F67" p-id="69334"></path><path d="M589.387089 692.280367a115.082569 114.612844 0 1 0 230.165137 0 115.082569 114.612844 0 1 0-230.165137 0Z" fill="#FAAF95" p-id="69335"></path><path d="M704.469658 816.757431C635.889841 816.757431 579.992593 760.860183 579.992593 692.280367S635.889841 568.273028 704.469658 568.273028 828.946722 624.170275 828.946722 692.280367 773.049474 816.757431 704.469658 816.757431z m0-239.089908C641.056814 577.667523 589.387089 629.337248 589.387089 692.280367c0 63.412844 51.669725 114.612844 115.082569 114.612844S819.552226 755.693211 819.552226 692.280367C819.552226 629.337248 767.882502 577.667523 704.469658 577.667523z" fill="#FF8F67" p-id="69336"></path><path d="M692.256814 608.199633a20.66789 14.561468 0 1 0 41.335779 0 20.66789 14.561468 0 1 0-41.335779 0Z" fill="#FFFFFF" p-id="69337"></path><path d="M314.823566 318.473394v32.880734c2.348624-1.878899 4.697248-4.227523 7.045871-7.045871l1.409175 5.636697c-4.227523 4.697248-8.924771 8.455046-13.622019 11.743119l-1.878899-4.697247c0.93945-0.93945 1.878899-2.348624 1.878899-3.288074v-30.062385h-10.803669v-5.166973h15.970642z m5.636697-10.803669l-3.757798 3.757798c-3.288073-3.757798-7.515596-7.515596-12.682569-11.273395l3.757798-3.757798c5.166972 3.757798 9.394495 7.515596 12.682569 11.273395z m26.304587-12.212844v4.697247h18.788991v4.227523h-18.788991V310.018349h15.970642v4.227523h-15.970642V319.412844h20.66789v4.697248h-46.033027v-4.697248h20.198165v-5.166972h-15.031193V310.018349h15.031193v-5.166973H323.748336V300.623853h18.319267v-4.697247h4.697247z m-14.561468 69.049541h-5.166972V328.807339h34.759633v29.122936c0 4.227523-2.348624 6.106422-6.576147 6.106422h-6.106422l-1.409174-4.697247h6.106422c1.878899 0 2.818349-0.93945 2.818348-2.818349V352.293578h-24.425688v12.212844z m24.425688-31.47156h-24.425688v5.636698H356.62907v-5.636698z m-24.425688 15.500918H356.62907V342.899083h-24.425688v5.636697zM376.827236 341.959633l-3.288074-4.227523c9.394495-7.515596 16.910092-16.440367 22.077064-26.774312h-19.258715v-5.166972h22.077064c1.409174-3.288073 2.818349-7.045872 3.757798-10.80367l5.636697 0.469725c-0.93945 3.288073-2.348624 7.045872-3.757798 9.86422h38.047707v5.166972h-40.396331c-2.818349 6.106422-6.576147 11.273394-10.333945 16.440367v37.108257h-5.166972v-31.001835c-3.288073 3.757798-6.106422 6.576147-9.394495 8.924771z m38.047706-11.273394v-14.091744h5.636697v14.091744h17.849542v5.166972h-17.849542v20.66789h21.137615V361.688073h-46.972477v-5.166972h20.198165v-20.66789h-17.379817v-5.166972h17.379817zM482.515309 295.456881v23.016513h27.713761V324.110092h-27.713761v32.411009h34.289908V361.688073H450.1043v-5.166972h27.244036v-61.06422h5.166973zM591.961181 298.744954v5.166973h-30.062386c-0.469725 3.288073-1.409174 6.576147-2.818348 9.394495h28.653211v51.2h-5.166973v-3.757798h-48.381651v3.757798h-5.166973V313.306422h24.425688c1.409174-3.288073 2.348624-6.106422 2.818349-9.394495h-31.47156v-5.166973h67.170643z m-46.972478 57.306422v-37.577982h-10.333945v37.577982h10.333945z m22.077065-28.183486v-9.394496h-16.910092v9.394496h16.910092z m0 13.622018v-9.394495h-16.910092v9.394495h16.910092z m0 14.561468v-9.394495h-16.910092v9.394495h16.910092z m15.970642 0v-37.577982h-10.80367v37.577982h10.80367zM601.355676 364.036697l-0.93945-5.166972c2.348624 0 4.227523 0.469725 6.106422 0.469725s2.818349-0.93945 2.818349-3.288074v-18.319266l-8.455046 2.818349-1.409174-5.166973c3.288073-0.93945 6.576147-1.878899 9.86422-3.288073V314.715596H600.885951v-4.697247h8.455046v-14.091743h5.166973v14.091743h7.045871v5.166972H614.977694v15.031193c2.348624-0.93945 5.166972-2.348624 7.515597-3.757798v5.166972c-2.348624 1.409174-5.166972 2.348624-7.515597 3.757798V356.990826c0 4.227523-1.878899 6.576147-6.106422 6.576146h-7.515596z m29.122936-39.926605h12.212844v-28.183486h5.166972v28.183486h12.212844v-7.515597h-7.985321v-4.697247h7.985321v-7.985321h-8.455046v-4.697248h13.152294V328.807339H647.858428v6.576147h16.910092v4.697248c-2.818349 5.636697-7.045872 10.333945-13.152294 14.091743 5.166972 2.348624 10.80367 4.227523 17.379817 5.636697l-1.878899 5.166973c-7.985321-1.878899-15.031193-4.227523-21.137615-7.515597-6.106422 2.818349-13.622018 5.636697-22.546789 7.515597l-2.818348-4.697248c7.985321-1.409174 14.561468-3.288073 20.198165-5.636697-5.636697-3.757798-9.394495-8.455046-12.212844-13.622019h-3.288074v-4.697247h17.849542V328.807339h-17.379817v-27.244036c3.757798-0.93945 7.515596-2.818349 11.273394-4.697248l3.288074 3.757798c-2.348624 1.409174-5.636697 2.818349-9.394496 4.227523v7.045872h7.985322v4.697247h-7.985322V324.110092z m15.031192 27.244036c5.636697-3.288073 9.86422-7.045872 12.682569-11.273394H633.766685c2.818349 4.227523 6.576147 7.985321 11.743119 11.273394zM699.528153 351.823853c-5.636697 4.697248-12.682569 7.985321-21.137615 11.273395l-2.348624-4.697248c7.985321-2.348624 15.031193-5.636697 20.198166-9.86422l3.288073 3.288073z m6.576147-50.26055v-6.106422h5.636697v6.106422h25.365138v5.166972h-25.365138v6.576147h28.653211v13.622018h-5.166972v-8.92477h-28.653211l4.227522 1.878899c-4.697248 3.757798-9.394495 6.576147-14.091743 9.394495 7.045872 0 12.682569-0.469725 16.910092-0.469725 2.818349-1.878899 5.166972-3.757798 7.985321-5.636697l4.227523 2.818349c-8.924771 6.576147-18.319266 11.743119-28.653211 15.031192 9.86422-0.469725 19.258716-0.93945 29.122936-1.409174-1.878899-1.878899-3.288073-3.757798-5.166973-5.166972l3.757799-2.348624c5.636697 5.166972 9.86422 9.86422 12.682568 14.091743l-4.227523 2.818349c-1.409174-1.878899-2.348624-3.757798-4.227522-5.636698-6.106422 0.469725-11.743119 0.93945-17.379817 0.93945v14.561468c0 3.757798-1.878899 5.636697-6.106422 5.636697h-7.045872l-0.939449-5.166972c1.878899 0 4.227523 0.469725 6.106422 0.469724s2.348624-0.93945 2.348624-2.348624v-12.682568c-8.455046 0.469725-15.970642 0.469725-23.016514 0.939449l-0.93945-4.697248h4.697248c6.106422-1.878899 12.682569-4.227523 19.258716-7.985321-5.166972 0-10.80367 0.469725-17.379817 0.469725l-0.939449-4.227523c0.93945 0 2.348624-0.469725 3.288073-1.409174 4.697248-2.818349 9.394495-6.106422 14.091743-9.86422h-22.546789v8.92477h-5.166972v-13.622018h28.653211v-6.576147H680.739162v-5.166972h25.365138z m35.229358 57.306422l-2.818349 4.227523c-7.045872-4.697248-14.091743-7.985321-21.137615-10.80367l2.818349-3.757798c7.515596 2.818349 14.561468 6.106422 21.137615 10.333945z" fill="#FAAF95" p-id="69338"></path></svg>