<?xml version="1.0" standalone="no"?><!DOCTYPE svg PUBLIC "-//W3C//DTD SVG 1.1//EN" "http://www.w3.org/Graphics/SVG/1.1/DTD/svg11.dtd"><svg t="1553498855099" class="icon" style="" viewBox="0 0 1024 1024" version="1.1" xmlns="http://www.w3.org/2000/svg" p-id="47872" xmlns:xlink="http://www.w3.org/1999/xlink" width="200" height="200"><defs><style type="text/css"></style></defs><path d="M14.083 340.396v343.208a151.912 151.912 0 0 0 81.582 137.847l343.209 182.857a149.099 149.099 0 0 0 146.286 0L925.555 821.45a154.725 154.725 0 0 0 84.396-137.847V340.396a154.725 154.725 0 0 0-84.396-137.847L585.16 19.692a149.099 149.099 0 0 0-146.286 0L95.665 202.55a151.912 151.912 0 0 0-81.582 137.847z" fill="#64CC7D" p-id="47873"></path><path d="M512.017 272.88A239.12 239.12 0 1 0 751.137 512a239.12 239.12 0 0 0-239.12-239.12M464.193 618.9V405.1L607.665 512z" fill="#3F3C56" p-id="47874"></path></svg>