<?xml version="1.0" standalone="no"?><!DOCTYPE svg PUBLIC "-//W3C//DTD SVG 1.1//EN" "http://www.w3.org/Graphics/SVG/1.1/DTD/svg11.dtd"><svg t="1551244893938" class="icon" style="" viewBox="0 0 1024 1024" version="1.1" xmlns="http://www.w3.org/2000/svg" p-id="3729" xmlns:xlink="http://www.w3.org/1999/xlink" width="128" height="128"><defs><style type="text/css"></style></defs><path d="M153.6 614.4a51.2 51.2 0 0 0-36.352 87.552l204.8 204.8a51.2 51.2 0 0 0 72.704-72.704L276.992 716.8H870.4a51.2 51.2 0 0 0 0-102.4z m716.8-204.8a51.2 51.2 0 0 0 36.352-87.552l-204.8-204.8a51.2 51.2 0 0 0-72.704 72.704L747.008 307.2H153.6a51.2 51.2 0 0 0 0 102.4zM153.6 0h716.8a153.6 153.6 0 0 1 153.6 153.6v716.8a153.6 153.6 0 0 1-153.6 153.6H153.6a153.6 153.6 0 0 1-153.6-153.6V153.6a153.6 153.6 0 0 1 153.6-153.6z" fill="#B3ADE9" p-id="3730"></path></svg>