<?xml version="1.0" standalone="no"?><!DOCTYPE svg PUBLIC "-//W3C//DTD SVG 1.1//EN" "http://www.w3.org/Graphics/SVG/1.1/DTD/svg11.dtd"><svg t="1551062393973" class="icon" style="" viewBox="0 0 1024 1024" version="1.1" xmlns="http://www.w3.org/2000/svg" p-id="17644" xmlns:xlink="http://www.w3.org/1999/xlink" width="128" height="128"><defs><style type="text/css"></style></defs><path d="M1006.250667 881.322667V261.12c0-74.410667-68.949333-68.949333-68.949334-68.949333H548.864c-22.186667 0-35.84-10.922667-35.84-10.922667s-16.384-27.648-46.762667-71.68C438.613333 60.074667 402.773333 68.266667 402.773333 68.266667H102.4C17.066667 68.266667 17.066667 148.48 17.066667 148.48v727.381333C17.066667 966.656 86.016 955.733333 86.016 955.733333h859.818667c71.68 0 60.416-74.410667 60.416-74.410666z m-738.304-157.013334c-30.378667 0-52.224-22.186667-52.224-52.224 0-30.378667 22.186667-52.224 52.224-52.224s52.224 24.917333 52.224 52.224-22.186667 52.224-52.224 52.224z m0-195.584c-30.378667 0-52.224-22.186667-52.224-52.224 0-27.648 22.186667-52.224 52.224-52.224s52.224 24.917333 52.224 52.224-22.186667 52.224-52.224 52.224z m512.341333 192.853334h-330.752c-27.648 0-49.493333-22.186667-49.493333-49.493334s22.186667-49.493333 49.493333-49.493333h330.752c27.648 0 49.493333 22.186667 49.493333 49.493333s-21.845333 49.493333-49.493333 49.493334z m0-195.584h-330.752c-27.648 0-49.493333-22.186667-49.493333-49.493334s22.186667-49.493333 49.493333-49.493333h330.752c27.648 0 49.493333 22.186667 49.493333 49.493333s-21.845333 49.493333-49.493333 49.493334z" fill="#1296db" p-id="17645"></path></svg>