<?xml version="1.0" standalone="no"?><!DOCTYPE svg PUBLIC "-//W3C//DTD SVG 1.1//EN" "http://www.w3.org/Graphics/SVG/1.1/DTD/svg11.dtd"><svg t="1551063723740" class="icon" style="" viewBox="0 0 1024 1024" version="1.1" xmlns="http://www.w3.org/2000/svg" p-id="1167" xmlns:xlink="http://www.w3.org/1999/xlink" width="128" height="128"><defs><style type="text/css"></style></defs><path d="M954.054 758.146c0 109.955-89.137 199.092-199.091 199.092-109.956 0-199.091-89.137-199.091-199.092 0-109.956 89.135-199.09 199.091-199.09C864.917 559.056 954.054 648.191 954.054 758.146zM766.543 690.848c0-7.998-6.484-14.48-14.481-14.48l-13.308 0c-7.997 0-14.479 6.482-14.479 14.48l0 73.604c0 7.995 6.483 14.479 14.479 14.479l13.308 0c7.997 0 14.481-6.484 14.481-14.479L766.543 690.848zM743.121 748.151c-9.732 0-17.623 6.483-17.623 14.48l0 13.307c0 7.998 7.891 14.481 17.623 14.481l89.578 0c9.732 0 17.623-6.483 17.623-14.481l0-13.307c0-7.997-7.891-14.48-17.623-14.48L743.121 748.151zM754.963 609.024c-82.359 0-149.123 66.765-149.123 149.122 0 82.358 66.764 149.124 149.123 149.124 82.358 0 149.123-66.767 149.123-149.124C904.086 675.79 837.321 609.024 754.963 609.024zM776.613 191.035 776.613 540.93c22.326 2.302 43.665 7.93 63.514 16.381L840.127 159.284c0-17.544-14.219-31.758-31.757-31.758L637.018 127.526c6.265 9.009 9.951 19.947 9.951 31.758 0 11.803-3.685 22.742-9.951 31.751L776.613 191.035zM388.145 255.912l132.143 0c33.943 0 61.461-27.52 61.461-61.461l0-5.465c0-33.94-27.518-61.46-61.461-61.46l-2.595 0c2.108-5.283 3.275-11.043 3.275-17.074 0-25.46-20.635-46.098-46.092-46.098l-38.929 0c-25.459 0-46.096 20.638-46.096 46.098 0 6.031 1.173 11.791 3.281 17.074l-4.986 0c-33.947 0-61.466 27.52-61.466 61.46l0 5.465C326.68 228.392 354.198 255.912 388.145 255.912zM280.779 594.166l97.952 97.952c7.65 7.65 17.679 11.476 27.705 11.476s20.051-3.827 27.699-11.476l195.902-195.894c15.304-15.304 15.304-40.11 0-55.41-15.299-15.304-40.1-15.304-55.405 0L406.436 609.01l-70.248-70.251c-15.298-15.291-40.104-15.291-55.409 0C265.483 554.062 265.483 578.871 280.779 594.166zM579.423 896.138 134.102 896.138l0-705.104 138.679 0c-6.266-9.009-9.951-19.948-9.951-31.751 0-11.811 3.685-22.749 9.951-31.758L102.345 127.525c-17.538 0-31.757 14.214-31.757 31.758l0 768.611c0 17.539 14.219 31.759 31.757 31.759l555.753 0C627.195 944.784 600.292 922.927 579.423 896.138z" p-id="1168" fill="#00e4d0"></path></svg>