<?xml version="1.0" standalone="no"?><!DOCTYPE svg PUBLIC "-//W3C//DTD SVG 1.1//EN" "http://www.w3.org/Graphics/SVG/1.1/DTD/svg11.dtd"><svg t="1550654961701" class="icon" style="" viewBox="0 0 1024 1024" version="1.1" xmlns="http://www.w3.org/2000/svg" p-id="2895" xmlns:xlink="http://www.w3.org/1999/xlink" width="200" height="200"><defs><style type="text/css"></style></defs><path d="M132.594872 594.707692c0 6.564103 5.251282 11.815385 11.815384 11.815385s11.815385-5.251282 11.815385-11.815385-5.251282-11.815385-11.815385-11.815384-11.815385 5.251282-11.815384 11.815384z m0 0M901.907692 273.066667c0 2.625641 1.312821 6.564103 3.938462 7.876923 2.625641 1.312821 6.564103 1.312821 9.189743 0 2.625641-1.312821 3.938462-3.938462 3.938462-7.876923 0-2.625641-1.312821-6.564103-3.938462-7.876923-2.625641-1.312821-6.564103-1.312821-9.189743 0-2.625641 1.312821-3.938462 3.938462-3.938462 7.876923z m0 0" fill="#FFFFFF" p-id="2896"></path><path d="M853.333333 26.25641c0 7.876923 5.251282 13.128205 13.128205 13.128205s13.128205-5.251282 13.128206-13.128205-5.251282-13.128205-13.128206-13.128205-13.128205 5.251282-13.128205 13.128205z m0 0M139.158974 694.482051c0 6.564103 5.251282 11.815385 11.815385 11.815385s11.815385-5.251282 11.815385-11.815385-5.251282-11.815385-11.815385-11.815384-11.815385 5.251282-11.815385 11.815384z m0 0" fill="#F1BC19" p-id="2897"></path><path d="M26.25641 512c0 267.815385 217.928205 485.74359 485.74359 485.74359s485.74359-217.928205 485.74359-485.74359S779.815385 26.25641 512 26.25641 26.25641 244.184615 26.25641 512z m0 0" fill="#E4E4F9" p-id="2898"></path><path d="M892.717949 52.512821c0 18.379487 10.502564 35.446154 26.25641 45.948717 15.753846 9.189744 36.758974 9.189744 52.51282 0 15.753846-9.189744 26.25641-26.25641 26.256411-45.948717 0-28.882051-23.630769-52.512821-52.512821-52.512821s-52.512821 23.630769-52.51282 52.512821z m0 0" fill="#F1BC19" p-id="2899"></path><path d="M971.487179 170.666667c0 9.189744 5.251282 18.379487 13.128206 22.317948 7.876923 5.251282 18.379487 5.251282 26.25641 0 7.876923-5.251282 13.128205-13.128205 13.128205-22.317948s-5.251282-18.379487-13.128205-22.317949c-7.876923-5.251282-18.379487-5.251282-26.25641 0-7.876923 3.938462-13.128205 13.128205-13.128206 22.317949z m0 0" fill="#9D9FCE" p-id="2900"></path><path d="M866.461538 840.205128c0 9.189744 5.251282 18.379487 13.128206 22.317949 7.876923 5.251282 18.379487 5.251282 26.25641 0 7.876923-5.251282 13.128205-13.128205 13.128205-22.317949s-5.251282-18.379487-13.128205-22.317949-18.379487-5.251282-26.25641 0c-7.876923 3.938462-13.128205 13.128205-13.128206 22.317949z m0 0M0 682.666667c0 28.882051 23.630769 52.512821 52.512821 52.51282s52.512821-23.630769 52.51282-52.51282-23.630769-52.512821-52.51282-52.512821-52.512821 23.630769-52.512821 52.512821z m0 0" fill="#FBCD59" p-id="2901"></path><path d="M157.538462 997.74359c0 9.189744 5.251282 18.379487 13.128205 22.317948 7.876923 5.251282 18.379487 5.251282 26.25641 0 7.876923-5.251282 13.128205-13.128205 13.128205-22.317948s-5.251282-18.379487-13.128205-22.317949c-7.876923-5.251282-18.379487-5.251282-26.25641 0-7.876923 3.938462-13.128205 13.128205-13.128205 22.317949z m0 0" fill="#9D9FCE" p-id="2902"></path><path d="M841.517949 253.374359c0 13.128205 10.502564 23.630769 23.630769 23.630769s23.630769-10.502564 23.630769-23.630769-10.502564-23.630769-23.630769-23.630769-23.630769 10.502564-23.630769 23.630769z m0 0M78.769231 526.441026c0 18.379487 14.441026 32.820513 32.820513 32.820512s32.820513-14.441026 32.820512-32.820512-14.441026-32.820513-32.820512-32.820513S78.769231 508.061538 78.769231 526.441026z m0 0" fill="#FFFFFF" p-id="2903"></path><path d="M739.117949 792.94359c-5.251282-27.569231-15.753846-44.635897-39.384616-52.512821l-3.938461-1.31282-6.564103-2.625641c-14.441026-6.564103-102.4-42.010256-102.4-42.010257-6.564103-1.312821-11.815385-6.564103-14.441025-14.441025-2.625641-11.815385-3.938462-24.94359-2.625641-38.071795-19.692308 7.876923-39.384615 13.128205-59.076924 18.379487-22.317949 2.625641-70.892308-28.882051-70.892307-28.882051s-1.312821 39.384615-2.625641 48.574359c-2.625641 7.876923-7.876923 13.128205-15.753846 14.441025l-84.020513 32.820513c-9.189744 2.625641-18.379487 6.564103-26.25641 11.815385-18.379487 13.128205-31.507692 31.507692-38.071795 53.825641-6.564103 22.317949-5.251282 43.323077-5.251282 44.635897 0 6.564103-1.312821 13.128205-1.312821 19.692308 91.897436 68.266667 165.415385 86.646154 292.758974 81.394872C617.025641 936.041026 702.358974 904.533333 748.307692 879.589744c-5.251282-53.825641-9.189744-86.646154-9.189743-86.646154z m0 0" fill="#AD7B59" p-id="2904"></path><path d="M787.692308 827.076923v85.333333C708.923077 966.235897 614.4 997.74359 512 997.74359s-196.923077-31.507692-275.692308-85.333334V827.076923c0-72.205128 85.333333-131.282051 157.538462-131.282051h236.307692c72.205128 0 157.538462 59.076923 157.538462 131.282051z" fill="#FDFCEF" p-id="2905"></path><path d="M664.287179 435.85641h-5.251282c-13.128205 0-15.753846 3.938462-15.753846-3.938461 1.312821-13.128205-1.312821-69.579487-1.31282-72.205128 0-57.764103-60.389744-105.025641-135.220513-107.651283h-2.625641c-74.830769 2.625641-135.220513 49.887179-135.220513 107.651283 0 2.625641-1.312821 59.076923-1.31282 72.205128 0 7.876923-2.625641 2.625641-15.753847 3.938461h-3.938461c-13.128205 0-23.630769 7.876923-27.569231 21.005128 1.312821 1.312821 7.876923 48.574359 18.379487 66.953847 5.251282 10.502564 14.441026 11.815385 23.63077 18.379487 3.938462 2.625641 6.564103 7.876923 7.876923 13.128205 6.564103 21.005128 18.379487 39.384615 35.446153 53.825641 7.876923 7.876923 57.764103 61.702564 102.4 59.076923 43.323077-2.625641 94.523077-52.512821 102.4-59.076923 15.753846-14.441026 27.569231-32.820513 34.133334-52.512821 1.312821-5.251282 3.938462-9.189744 7.876923-13.128205 9.189744-6.564103 18.379487-7.876923 23.630769-18.379487 10.502564-18.379487 15.753846-65.641026 18.379487-66.953846-6.564103-13.128205-17.066667-21.005128-30.194872-22.317949z m0 0" fill="#F7C99F" p-id="2906"></path><path d="M506.748718 540.882051c9.189744 0 17.066667-3.938462 22.317949-10.502564v-1.31282-1.312821h-1.312821-1.31282c-11.815385 10.502564-30.194872 10.502564-40.697436 0h-1.312821-1.31282v2.625641c6.564103 6.564103 15.753846 10.502564 23.630769 10.502564z m-27.569231-106.338461l5.251282-10.502564c-24.94359-5.251282-49.887179-5.251282-73.517948 2.625641l6.564102 10.502564c19.692308-6.564103 40.697436-7.876923 61.702564-2.625641z m118.153846 0l5.251282-10.502564c-24.94359-5.251282-49.887179-5.251282-73.517948 2.625641l6.564102 10.502564c21.005128-6.564103 42.010256-7.876923 61.702564-2.625641z m-152.287179 14.441025c-5.251282 0-10.502564 3.938462-13.128205 9.189744h1.31282c5.251282 0 9.189744 3.938462 9.189744 9.189744 0 5.251282-3.938462 9.189744-9.189744 9.189743-1.312821 0-2.625641 0-3.938461-1.31282 1.312821 7.876923 7.876923 14.441026 15.753846 14.441025 9.189744-2.625641 15.753846-10.502564 15.753846-21.005128 0-7.876923-6.564103-15.753846-15.753846-19.692308z m123.405128 0c-5.251282 0-9.189744 2.625641-11.815385 6.564103h2.625641c5.251282 0 9.189744 3.938462 9.189744 9.189744 0 5.251282-3.938462 9.189744-9.189744 9.189743-2.625641 0-5.251282-1.312821-6.564102-3.938461 2.625641 7.876923 10.502564 13.128205 19.692308 11.815384 7.876923-1.312821 14.441026-9.189744 13.128205-18.379487-1.312821-6.564103-7.876923-13.128205-17.066667-14.441026z m0 0" fill="#512C2B" p-id="2907"></path><path d="M599.958974 719.425641c-28.882051 15.753846-61.702564 23.630769-94.523077 22.317949-32.820513 1.312821-65.641026-6.564103-95.835897-22.317949-13.128205-6.564103-22.317949-10.502564-22.317949-23.630769 0-11.815385 9.189744-22.317949 22.317949-22.317949 11.815385 0 60.389744 19.692308 94.523077 19.692308 34.133333 0 95.835897-19.692308 95.835897-19.692308 11.815385 0 22.317949 10.502564 22.317949 23.630769-1.312821 11.815385-7.876923 15.753846-22.317949 22.317949z m0 0" fill="#E1E0D8" p-id="2908"></path><path d="M665.6 258.625641c-1.312821-7.876923-9.189744-6.564103-17.066667-5.251282-23.630769 1.312821-30.194872-6.564103-80.082051-34.133333-42.010256-23.630769-94.523077-21.005128-133.907692 6.564102C280.94359 259.938462 371.528205 459.487179 371.528205 459.487179s0-105.025641 47.261539-136.533333c80.082051 52.512821 156.225641 57.764103 203.487179 27.569231 18.379487 39.384615 17.066667 108.964103 17.066667 108.964102 22.317949-43.323077 27.569231-93.210256 14.441025-139.158974-5.251282-19.692308 14.441026-38.071795 11.815385-61.702564z m0 0" fill="#472B29" p-id="2909"></path><path d="M464.738462 584.205128c0 2.625641-1.312821 3.938462-1.312821 6.564103 0 18.379487 19.692308 32.820513 44.635897 32.820513s44.635897-14.441026 44.635898-32.820513c0-2.625641 0-3.938462-1.312821-6.564103h-86.646153z m0 0" fill="#6D1B18" p-id="2910"></path><path d="M531.692308 617.025641c-14.441026-10.502564-32.820513-10.502564-47.261539 0 15.753846 6.564103 32.820513 6.564103 47.261539 0z m0 0" fill="#EE3E54" p-id="2911"></path><path d="M477.866667 584.205128v5.251282c0 5.251282 6.564103 9.189744 14.441025 9.189744H525.128205c7.876923 0 14.441026-3.938462 14.441026-9.189744v-5.251282h-61.702564z m0 0" fill="#FDFCEF" p-id="2912"></path></svg>