<?xml version="1.0" standalone="no"?><!DOCTYPE svg PUBLIC "-//W3C//DTD SVG 1.1//EN" "http://www.w3.org/Graphics/SVG/1.1/DTD/svg11.dtd"><svg t="1551163143206" class="icon" style="" viewBox="0 0 1024 1024" version="1.1" xmlns="http://www.w3.org/2000/svg" p-id="26351" xmlns:xlink="http://www.w3.org/1999/xlink" width="128" height="128"><defs><style type="text/css"></style></defs><path d="M1024 512C1024 229.232 794.784 0 512 0S0 229.232 0 512c0 149.056 63.744 283.2 165.408 376.768 8.72 11.168 21.408 21.696 37.568 31.408C288.88 985.296 395.904 1024 512 1024c122.032 0 234.064-42.768 322.032-114.032 6.288-4.576 11.84-9.296 16.656-14.144C956.912 802.016 1024 664.88 1024 512z m-976 0C48 255.728 255.744 48 512 48c256.288 0 464 207.728 464 464 0 113.168-40.56 216.848-107.872 297.376-14.32-73.44-70.32-73.744-145.68-89.376-79.344-16.56-149.968-19.52-121.536-125.472 38.256-28.016 46.944-85.264 93.904-104.208 17.68-22.832 13.312-60.24 0-76.528s-21.712-6.144-24.688-17.36c-2.752-59.216 19.968-146.208-20.72-174.224-6.688-4.144-13.024-5.552-20.096-5.552-7.12 0-15.216 1.392-22.912 1.392-5.12 0-11.056-0.8-15.776-2.768-22.88-8.48-24.096-38.672-49.344-41.44h-20.912c-34.72 23.456-76.336 19.344-112.464 29.6-1.568 0.4-3.744 0.784-5.12 1.584-21.312 6.704-34.16 19.328-42.624 35.712-11.44 22.688-13.808 53.44-13.808 87.792-0.192 20.16 0.4 42.064 0.4 64.336-17.968 9.472-25.28 29.168-25.664 49.696-0.4 11.84 1.184 24.464 4.72 34.752 5.712 19.136 23.504 24.048 38.096 41.824 17.152 21.088 29.008 49.728 44 65.504 5.936 5.552 11.664 9.472 19.344 11.056v68.656c-5.936 7.696-12.256 14.208-19.344 19.728-64.72 54.448-196.528 30.976-238.944 112.096-5.28 10.56-7.744 14.032-9.408 17.424C90.064 732.48 48 627.184 48 512z" fill="#D2D7E4" p-id="26352"></path></svg>