<?xml version="1.0" standalone="no"?><!DOCTYPE svg PUBLIC "-//W3C//DTD SVG 1.1//EN" "http://www.w3.org/Graphics/SVG/1.1/DTD/svg11.dtd"><svg t="1547171817466" class="icon" style="" viewBox="0 0 1024 1024" version="1.1" xmlns="http://www.w3.org/2000/svg" p-id="13080" xmlns:xlink="http://www.w3.org/1999/xlink" width="200" height="200"><defs><style type="text/css"></style></defs><path d="M1023.018667 273.749333c-4.48 99.754667-74.197333 236.501333-208.810667 409.984-139.434667 181.205333-257.109333 271.786667-353.706667 271.786667-60.117333 0-109.994667-55.210667-151.594666-165.589333L227.072 486.4C196.394667 376.149333 163.584 320.938667 128.426667 320.938667c-7.637333 0-34.389333 16.128-80.256 48.298666L0 307.072a13442.773333 13442.773333 0 0 0 149.376-133.461333C216.746667 115.242667 267.349333 84.650667 301.013333 81.493333c79.658667-7.68 128.682667 46.933333 147.072 163.754667 19.84 125.994667 33.664 204.330667 41.429334 234.965333 22.997333 104.533333 48.256 156.757333 75.776 156.757334 21.418667 0 53.589333-33.962667 96.64-101.76 42.837333-67.797333 65.706667-119.338667 68.778666-154.794667 6.144-58.496-16.853333-87.936-68.864-87.936-24.490667 0-49.792 5.162667-75.818666 16.682667 50.602667-165.034667 146.517333-245.632 288.512-240.512 105.514667 2.56 154.794667 70.997333 149.034666 204.672l-0.554666 0.426666z" fill="#d81e06" p-id="13081"></path></svg>