<?xml version="1.0" standalone="no"?><!DOCTYPE svg PUBLIC "-//W3C//DTD SVG 1.1//EN" "http://www.w3.org/Graphics/SVG/1.1/DTD/svg11.dtd"><svg t="1548741387676" class="icon" style="" viewBox="0 0 1024 1024" version="1.1" xmlns="http://www.w3.org/2000/svg" p-id="3402" xmlns:xlink="http://www.w3.org/1999/xlink" width="128" height="128"><defs><style type="text/css"></style></defs><path d="M170.666667 128a85.333333 85.333333 0 0 1 85.333333-85.333333h512a85.333333 85.333333 0 0 1 85.333333 85.333333v92.16a213.333333 213.333333 0 0 1-74.496 162.005333L627.370667 512l151.466666 129.834667A213.333333 213.333333 0 0 1 853.333333 803.84V896a85.333333 85.333333 0 0 1-85.333333 85.333333H256a85.333333 85.333333 0 0 1-85.333333-85.333333v-92.16a213.333333 213.333333 0 0 1 74.496-161.962667L396.629333 512l-151.466666-129.834667A213.333333 213.333333 0 0 1 170.666667 220.16V128z m597.333333 0H256v92.16a128 128 0 0 0 44.714667 97.194667l151.466666 129.834666a85.333333 85.333333 0 0 1 0 129.578667l-151.466666 129.877333A128 128 0 0 0 256 803.84V896h512v-92.16a128 128 0 0 0-44.714667-97.194667l-151.466666-129.877333a85.333333 85.333333 0 0 1 0-129.578667l151.466666-129.834666A128 128 0 0 0 768 220.16V128z" fill="#75C82B" p-id="3403"></path><path d="M481.834667 652.501333a42.666667 42.666667 0 0 1 60.330666 0l85.333334 85.333334A42.666667 42.666667 0 0 1 597.333333 810.666667h-170.666666a42.666667 42.666667 0 0 1-30.165334-72.832l85.333334-85.333334z" fill="#75C82B" p-id="3404"></path></svg>