<?xml version="1.0" standalone="no"?><!DOCTYPE svg PUBLIC "-//W3C//DTD SVG 1.1//EN" "http://www.w3.org/Graphics/SVG/1.1/DTD/svg11.dtd"><svg t="1548811788081" class="icon" style="" viewBox="0 0 1024 1024" version="1.1" xmlns="http://www.w3.org/2000/svg" p-id="27963" xmlns:xlink="http://www.w3.org/1999/xlink" width="200" height="200"><defs><style type="text/css"></style></defs><path d="M204.8 0h614.4c112.64 0 204.8 92.16 204.8 204.8v614.4c0 112.64-92.16 204.8-204.8 204.8H204.8C92.16 1024 0 931.84 0 819.2V204.8C0 92.16 92.16 0 204.8 0z" p-id="27964"></path><path d="M760.832 300.032H273.408c-22.528 0-37.888-14.336-37.888-36.864s15.36-36.864 37.888-36.864h487.424c22.528 0 37.888 14.336 37.888 36.864s-15.36 36.864-37.888 36.864z m0 518.144H273.408c-22.528 0-37.888-14.336-37.888-36.864s15.36-36.864 37.888-36.864h487.424c22.528 0 37.888 14.336 37.888 36.864s-15.36 36.864-37.888 36.864zM632.832 366.592H404.48c11.264 40.96 40.96 70.656 78.848 77.824l22.528 11.264c4.096 4.096 7.168 7.168 7.168 11.264 7.168-11.264 18.432-18.432 33.792-22.528 40.96-7.168 71.68-36.864 86.016-77.824z m-108.544 215.04l-4.096-7.168v7.168l-4.096 4.096H512c-4.096 4.096-7.168 4.096-15.36 7.168-49.152 14.336-74.752 48.128-74.752 103.424v11.264H614.4V696.32c0-55.296-26.624-89.088-67.584-103.424h-7.168c-7.168-4.096-11.264-8.192-15.36-11.264z" fill="#FFFFFF" p-id="27965"></path><path d="M543.744 533.504c0 3.072 0 3.072 0 0 0 3.072 0 3.072 0 0v4.096s0 4.096 4.096 4.096c4.096 4.096 4.096 4.096 7.168 4.096 74.752 18.432 116.736 84.992 116.736 166.912V737.28h52.224v-25.6c0-77.824-37.888-151.552-101.376-188.416 63.488-36.864 101.376-110.592 101.376-188.416v-34.816h-52.224v40.96c0 77.824-40.96 148.48-116.736 166.912-4.096-1.024-11.264 10.24-11.264 25.6zM307.2 718.848v25.6h52.224v-25.6c0-77.824 40.96-144.384 116.736-166.912 4.096 0 7.168-4.096 7.168-4.096v-4.096c4.096-4.096 4.096-11.264 0-14.336 0-4.096-4.096-11.264-7.168-11.264-4.096 0-4.096-4.096-7.168-4.096-67.584-29.696-108.544-96.256-108.544-174.08v-40.96H307.2v40.96c0 77.824 40.96 148.48 105.472 188.416C348.16 566.272 307.2 636.928 307.2 718.848z" fill="#FFFFFF" p-id="27966"></path></svg>
