<?xml version="1.0" standalone="no"?><!DOCTYPE svg PUBLIC "-//W3C//DTD SVG 1.1//EN" "http://www.w3.org/Graphics/SVG/1.1/DTD/svg11.dtd"><svg t="1553497171970" class="icon" style="" viewBox="0 0 1137 1024" version="1.1" xmlns="http://www.w3.org/2000/svg" p-id="47750" xmlns:xlink="http://www.w3.org/1999/xlink" width="222.0703125" height="200"><defs><style type="text/css"></style></defs><path d="M0 0m113.777778 0l910.222222 0q113.777778 0 113.777778 113.777778l0 682.666666q0 113.777778-113.777778 113.777778l-910.222222 0q-113.777778 0-113.777778-113.777778l0-682.666666q0-113.777778 113.777778-113.777778Z" fill="#6A8DFF" p-id="47751"></path><path d="M75.851852 75.851852m75.851852 0l834.37037 0q75.851852 0 75.851852 75.851852l0 606.814815q0 75.851852-75.851852 75.851851l-834.37037 0q-75.851852 0-75.851852-75.851851l0-606.814815q0-75.851852 75.851852-75.851852Z" fill="#FFFFFF" p-id="47752"></path><path d="M549.925926 208.592593m18.962963 0l322.37037 0q18.962963 0 18.962963 18.962963l0 0q0 18.962963-18.962963 18.962963l-322.37037 0q-18.962963 0-18.962963-18.962963l0 0q0-18.962963 18.962963-18.962963Z" fill="#CCC8D5" p-id="47753"></path><path d="M549.925926 360.296296m18.962963 0l322.37037 0q18.962963 0 18.962963 18.962963l0 0q0 18.962963-18.962963 18.962963l-322.37037 0q-18.962963 0-18.962963-18.962963l0 0q0-18.962963 18.962963-18.962963Z" fill="#CCC8D5" p-id="47754"></path><path d="M303.407407 967.111111m28.444445 0l474.074074 0q28.444444 0 28.444444 28.444445l0 0q0 28.444444-28.444444 28.444444l-474.074074 0q-28.444444 0-28.444445-28.444444l0 0q0-28.444444 28.444445-28.444445Z" fill="#6A8DFF" p-id="47755"></path><path d="M227.555556 189.62963m37.925925 0l151.703704 0q37.925926 0 37.925926 37.925926l0 151.703703q0 37.925926-37.925926 37.925926l-151.703704 0q-37.925926 0-37.925925-37.925926l0-151.703703q0-37.925926 37.925925-37.925926Z" fill="#3CC3F7" p-id="47756"></path><path d="M268.705185 271.03763a19.076741 19.076741 0 0 1 26.927408 0l40.201481 40.220444a19.000889 19.000889 0 0 1-26.927407 26.81363l-40.201482-40.220445a18.962963 18.962963 0 0 1 0-26.813629z m40.201482 40.220444l67.128889-67.034074a18.962963 18.962963 0 0 1 26.737777 26.81363l-66.939259 67.034074a19.000889 19.000889 0 0 1-26.927407-26.81363z" fill="#FFFFFF" p-id="47757"></path><path d="M549.925926 512m18.962963 0l322.37037 0q18.962963 0 18.962963 18.962963l0 0q0 18.962963-18.962963 18.962963l-322.37037 0q-18.962963 0-18.962963-18.962963l0 0q0-18.962963 18.962963-18.962963Z" fill="#CCC8D5" p-id="47758"></path><path d="M549.925926 663.703704m18.962963 0l322.37037 0q18.962963 0 18.962963 18.962963l0 0q0 18.962963-18.962963 18.962963l-322.37037 0q-18.962963 0-18.962963-18.962963l0 0q0-18.962963 18.962963-18.962963Z" fill="#CCC8D5" p-id="47759"></path><path d="M227.555556 493.037037m37.925925 0l151.703704 0q37.925926 0 37.925926 37.925926l0 151.703704q0 37.925926-37.925926 37.925926l-151.703704 0q-37.925926 0-37.925925-37.925926l0-151.703704q0-37.925926 37.925925-37.925926Z" fill="#3CC3F7" p-id="47760"></path><path d="M268.705185 574.445037a19.076741 19.076741 0 0 1 26.927408 0l40.201481 40.220444a19.000889 19.000889 0 0 1-26.927407 26.81363l-40.201482-40.220444a18.962963 18.962963 0 0 1 0-26.81363z m40.201482 40.220444l67.128889-67.034074a18.962963 18.962963 0 0 1 26.737777 26.81363l-66.939259 67.034074a19.000889 19.000889 0 0 1-26.927407-26.81363z" fill="#FFFFFF" p-id="47761"></path></svg>