<?xml version="1.0" standalone="no"?><!DOCTYPE svg PUBLIC "-//W3C//DTD SVG 1.1//EN" "http://www.w3.org/Graphics/SVG/1.1/DTD/svg11.dtd"><svg t="1554099494423" class="icon" style="" viewBox="0 0 1024 1024" version="1.1" xmlns="http://www.w3.org/2000/svg" p-id="2105" xmlns:xlink="http://www.w3.org/1999/xlink" width="200" height="200"><defs><style type="text/css"></style></defs><path d="M541.53876 18.471426l187.554828 43.151736-0.682977 336.211005-93.39712-53.24117-93.474731 54.638169V18.471426z m359.028649 1005.373352H227.291678a151.015553 151.015553 0 0 1-150.829286-150.875853V153.980294A154.182083 154.182083 0 0 1 230.47373 0h670.093679a47.078854 47.078854 0 0 1 47.04781 47.032287v929.780204a47.078854 47.078854 0 0 1-47.04781 47.032287zM227.291678 816.312869a56.733667 56.733667 0 1 0 0 113.467334h626.227922v-113.467334H227.291678z m3.104441-722.248294a59.977808 59.977808 0 0 0-59.915719 59.915719v579.288768a149.991087 149.991087 0 0 1 56.733667-11.020767H853.441989V94.064575H230.551342z" fill="#F59F17" p-id="2106"></path></svg>